<svg width="65" height="22" viewBox="0 0 65 22" fill="none" xmlns="http://www.w3.org/2000/svg">
<g id="2GIS_logo 1" clip-path="url(#clip0_143_6024)">
<g id="&#208;&#161;&#208;&#187;&#208;&#190;&#208;&#185;_x0020_1">
<g id="_2310502456944">
<path id="path30" d="M62.0104 8.22876H64.9927C64.6155 5.32636 62.4955 3.80078 59.549 3.80078C56.5668 3.80078 54.5726 5.38221 54.5726 8.09852C54.5726 11.1869 57.1417 11.8752 58.5071 12.1544C60.2677 12.5079 61.9924 12.5451 61.9924 14.1079C61.9924 15.1684 61.1301 15.6893 59.9084 15.6893C58.3993 15.6893 57.3933 14.9079 57.1417 13.494H54.1953C54.3749 16.5452 56.513 18.1824 59.657 18.1824C62.5674 18.1824 64.9567 16.8056 64.9567 13.8288C64.9567 10.6288 62.2081 10.052 60.2857 9.75434C58.9741 9.54972 57.5369 9.36364 57.5369 7.93105C57.5369 6.9264 58.2735 6.31247 59.5132 6.31247C60.9505 6.31247 61.8127 7.14973 62.0104 8.22876Z" fill="white"/>
<path id="path32" d="M52.5605 4.26562H49.7398V17.7541H52.5605V4.26562Z" fill="white"/>
<path id="path26" d="M41.2241 13.0478H44.9071C44.3321 14.4991 43.0386 15.1873 41.5474 15.1873C38.9245 15.1873 37.7028 13.085 37.7028 11.0013C37.7028 8.8989 38.8526 6.75938 41.5295 6.75938C43.1644 6.75938 44.386 7.54078 44.8531 8.93613L47.8893 8.93615C47.3684 5.79198 44.7094 3.9873 41.5655 3.9873C37.6849 3.9873 34.7744 6.72215 34.7744 11.0385C34.7744 15.4106 37.9363 17.9967 41.5474 17.9967C45.1047 17.9967 47.8893 15.5967 47.8893 11.8385V10.7408H41.2241V13.0478Z" fill="white"/>
<path id="path36" d="M28.3247 3.9873C25.0909 3.9873 22.7014 6.0896 22.7194 9.58732H25.6299C25.5939 8.06173 26.5281 6.66638 28.1809 6.66638C29.6182 6.66638 30.4626 7.70826 30.4626 8.89891C30.4626 10.0896 29.6182 10.7594 28.0552 11.4851C25.9173 12.4711 24.3902 13.1037 22.8272 13.6618V17.7549H33.7144V15.0013H26.2402C26.2402 15.0013 26.2651 14.9933 26.2773 14.9894C27.5486 14.5905 28.5037 14.1571 29.6362 13.6432C32.0615 12.5269 33.4449 11.1315 33.4449 8.75013C33.4449 5.82912 31.3609 3.9873 28.3247 3.9873Z" fill="white"/>
<g id="Group">
<path id="path22" d="M15.066 13.0104C11.401 13.029 10.8081 15.3174 10.6105 17.2523L10.5207 18.1081H9.78405L9.69424 17.2523C9.49665 15.3174 8.88582 13.029 5.34654 13.0104C4.75368 11.7452 4.50216 10.7219 4.50216 9.56845C4.50216 6.68475 6.78382 3.98697 10.1613 3.98697C13.5389 3.98697 15.7846 6.66605 15.7846 9.58714C15.7846 10.7219 15.6768 11.7452 15.066 13.0104ZM10.1255 0.489258C4.55611 0.489258 -0.00723267 5.21493 -0.00723267 11.001C-0.00723267 16.8058 4.55611 21.5313 10.1255 21.5313C15.7487 21.5313 20.294 16.8058 20.294 11.001C20.294 5.21495 15.7487 0.489258 10.1255 0.489258Z" fill="#29B24A"/>
</g>
</g>
</g>
</g>
<defs>
<clipPath id="clip0_143_6024">
<rect width="65" height="21.0421" fill="white" transform="translate(0 0.478516)"/>
</clipPath>
</defs>
</svg>
