<svg width="40" height="40" viewBox="0 0 40 40" fill="none" xmlns="http://www.w3.org/2000/svg">
<g id="Icons">
<path id="Vector" d="M36.6667 8.46667C36.668 7.45037 36.3677 6.45653 35.8038 5.61106C35.2398 4.76559 34.4376 4.10655 33.4987 3.71744C32.5599 3.32833 31.5266 3.22666 30.5299 3.42532C29.5332 3.62397 28.6179 4.11401 27.9 4.83334L23.2167 9.51667L12.4 5.91667C12.112 5.82616 11.8048 5.81556 11.5113 5.88601C11.2178 5.95646 10.9489 6.10531 10.7333 6.31667L6.76666 10.25C6.5787 10.4401 6.43925 10.6727 6.36006 10.928C6.28088 11.1834 6.26428 11.454 6.31167 11.7172C6.35906 11.9803 6.46906 12.2281 6.63237 12.4398C6.79568 12.6515 7.00751 12.8207 7.24999 12.9333L15.8833 16.85L11.55 21.1833L8.69999 19.75C8.39228 19.5835 8.03996 19.518 7.69296 19.5629C7.34596 19.6077 7.02188 19.7607 6.76666 20L3.81666 23.0167C3.50624 23.3289 3.332 23.7514 3.332 24.1917C3.332 24.632 3.50624 25.0544 3.81666 25.3667L14.6333 36.1833C14.9456 36.4938 15.368 36.668 15.8083 36.668C16.2486 36.668 16.6711 36.4938 16.9833 36.1833L20 33.2333C20.2501 32.9858 20.4155 32.6654 20.4724 32.3181C20.5293 31.9708 20.4747 31.6144 20.3167 31.3L18.8833 28.45L23.2167 24.1167L27.1333 32.75C27.2459 32.9925 27.4152 33.2043 27.6269 33.3676C27.8385 33.5309 28.0864 33.6409 28.3495 33.6883C28.6126 33.7357 28.8833 33.7191 29.1386 33.6399C29.394 33.5607 29.6265 33.4213 29.8167 33.2333L33.75 29.3C33.9614 29.0845 34.1102 28.8156 34.1807 28.522C34.2511 28.2285 34.2405 27.9213 34.15 27.6333L30.55 16.8167L35.1667 12.1C35.6454 11.6243 36.0245 11.058 36.2821 10.4342C36.5396 9.81039 36.6703 9.14154 36.6667 8.46667ZM32.8 9.75001L27.4 15.15C27.1886 15.3655 27.0398 15.6344 26.9693 15.928C26.8989 16.2215 26.9095 16.5287 27 16.8167L30.6 27.6167L29.1 29.1167L25.1833 20.5C25.0722 20.2553 24.9035 20.0411 24.6916 19.8757C24.4797 19.7102 24.231 19.5985 23.9667 19.55C23.7001 19.5014 23.4257 19.5184 23.1672 19.5997C22.9088 19.6811 22.674 19.8242 22.4833 20.0167L15.6167 26.95C15.3701 27.1963 15.207 27.5136 15.1502 27.8574C15.0934 28.2012 15.1458 28.5542 15.3 28.8667L16.6667 31.6667L15.7333 32.6L7.34999 24.2L8.33332 23.3333L11.1833 24.7667C11.4958 24.9209 11.8488 24.9733 12.1926 24.9165C12.5364 24.8597 12.8537 24.6965 13.1 24.45L20 17.5167C20.1915 17.3267 20.334 17.093 20.4153 16.8358C20.4966 16.5785 20.5142 16.3054 20.4667 16.0399C20.4192 15.7743 20.3079 15.5243 20.1424 15.3112C19.9769 15.0982 19.7622 14.9285 19.5167 14.8167L10.8333 10.9L12.3333 9.40001L23.1333 13C23.4213 13.0905 23.7285 13.1011 24.022 13.0307C24.3156 12.9602 24.5845 12.8114 24.8 12.6L30.2 7.20001C30.3661 7.03018 30.5644 6.89524 30.7834 6.80311C31.0023 6.71099 31.2374 6.66353 31.475 6.66353C31.7125 6.66353 31.9477 6.71099 32.1666 6.80311C32.3856 6.89524 32.5839 7.03018 32.75 7.20001C32.9238 7.36108 33.0613 7.55738 33.1533 7.77581C33.2453 7.99423 33.2896 8.22976 33.2833 8.46667C33.2924 8.702 33.2543 8.93676 33.1713 9.15715C33.0883 9.37754 32.962 9.57911 32.8 9.75001Z" fill="#22303A"/>
</g>
</svg>
