<svg width="147" height="48" viewBox="0 0 147 48" fill="none" xmlns="http://www.w3.org/2000/svg">
<path d="M139.766 26.4486L137.774 21.4154H127.854L125.971 26.4486H119.236L129.99 0.812775H136L146.646 26.4486H139.766ZM132.886 7.65601L129.628 16.4547H136.073L132.886 7.65601Z" fill="#3A688A"/>
<path d="M105.078 26.4486L95.5552 14.6443H95.4826V26.4486H89.3998V0.812775H95.4826V11.2409H95.5915L104.752 0.812775H112.501L101.457 12.6166L113.153 26.4486H105.078Z" fill="#3A688A"/>
<path d="M75.2421 26.4486L65.7192 14.6443H65.6466V26.4486H59.5635V0.812775H65.6466V11.2409H65.7555L74.9163 0.812775H82.6647L71.6209 12.6166L83.3167 26.4486H75.2421Z" fill="#3A688A"/>
<path d="M46.6008 26.4486L44.6094 21.4154H34.6881L32.8052 26.4486H26.0704L36.8243 0.812775H42.8353L53.4803 26.4486H46.6008ZM39.7213 7.65601L36.4622 16.4547H42.9075L39.7213 7.65601Z" fill="#3A688A"/>
<path d="M19.9873 18.9896C19.9873 20.3896 19.7099 21.5662 19.1546 22.5197C18.5994 23.4733 17.8632 24.2398 16.9459 24.8192C16.0286 25.3982 14.9847 25.8147 13.8138 26.0683C12.6433 26.3216 11.4421 26.4486 10.2111 26.4486H0V0.812775H10.2111C11.2006 0.812775 12.2147 0.915187 13.2525 1.12041C14.2904 1.32564 15.2319 1.67564 16.077 2.17038C16.9217 2.6655 17.6096 3.33523 18.1406 4.17995C18.672 5.02505 18.9373 6.09921 18.9373 7.40277C18.9373 8.8269 18.5511 10.0034 17.7785 10.9328C17.0064 11.8622 15.9923 12.5323 14.7371 12.9424V13.015C15.4613 13.1356 16.1431 13.3589 16.783 13.6847C17.4225 14.0109 17.9777 14.427 18.4486 14.9342C18.9192 15.4411 19.2933 16.0326 19.5711 16.7083C19.8486 17.3841 19.9873 18.1445 19.9873 18.9896ZM13.7956 18.4103C13.7956 17.3479 13.3973 16.6116 12.6009 16.2015C11.8042 15.791 10.7422 15.5858 9.41442 15.5858H5.97468V21.4517H9.4507C9.93335 21.4517 10.4341 21.4093 10.9535 21.325C11.4724 21.2404 11.9429 21.0896 12.3655 20.8722C12.788 20.6549 13.132 20.3473 13.3973 19.9489C13.663 19.5506 13.7956 19.0377 13.7956 18.4103ZM12.963 8.23538C12.963 7.36646 12.6308 6.73264 11.9671 6.33428C11.3034 5.9363 10.3196 5.73712 9.01606 5.73712H5.97468V11.0236H9.30596C10.4644 11.0236 11.3635 10.7881 12.0034 10.3175C12.6433 9.84662 12.963 9.15267 12.963 8.23538Z" fill="#3A688A"/>
<path d="M5.42287 38.9728V47.1872H2.92347V38.9728H0V36.8385H8.34633V38.9728H5.42287ZM33.4042 47.1872L31.1679 43.08H30.3201V47.1872H27.8646V36.8385H31.8111C32.3082 36.8385 32.7931 36.8899 33.2655 36.9919C33.7383 37.0944 34.162 37.2674 34.5373 37.5108C34.9122 37.7546 35.212 38.0763 35.4361 38.4758C35.6602 38.8753 35.7725 39.3723 35.7725 39.9664C35.7725 40.6683 35.5824 41.2579 35.2021 41.7352C34.8223 42.2126 34.2962 42.5539 33.6238 42.7584L36.3277 47.1872H33.4042ZM33.3022 40.0103C33.3022 39.7669 33.2512 39.5696 33.1487 39.4184C33.0463 39.2672 32.9148 39.1504 32.7541 39.0677C32.5931 38.9849 32.4129 38.9289 32.2133 38.8995C32.0134 38.8704 31.821 38.8556 31.6358 38.8556H30.3058V41.2673H31.4895C31.6944 41.2673 31.9037 41.2503 32.118 41.2163C32.3327 41.1823 32.5274 41.1214 32.7027 41.0337C32.8781 40.9461 33.0221 40.8191 33.134 40.6535C33.2462 40.488 33.3022 40.2737 33.3022 40.0103ZM62.9499 47.1872L62.146 45.1554H58.1409L57.3808 47.1872H54.6622L59.0033 36.8385H61.4298L65.7271 47.1872H62.9499ZM60.1727 39.6013L58.8571 43.1529H61.4589L60.1727 39.6013ZM89.6598 47.1872H87.1601L83.243 36.8385H86.0493L88.4466 44.1761H88.5048L90.8874 36.8385H93.6499L89.6598 47.1872ZM112.876 47.1872V36.8385H119.834V38.958H115.288V40.9022H119.585V42.9046H115.288V45.0533H120.097V47.1872H112.876ZM140.127 47.1872V36.8385H142.641V45.0094H146.646V47.1872H140.127Z" fill="#D1B06B"/>
</svg>
