<svg width="21" height="20" viewBox="0 0 21 20" fill="none" xmlns="http://www.w3.org/2000/svg">
<path id="Vector" d="M18.44 11.0004C18.22 11.0004 17.99 10.9304 17.77 10.8804C17.3245 10.7822 16.8867 10.6518 16.46 10.4904C15.9961 10.3216 15.4861 10.3304 15.0283 10.515C14.5705 10.6996 14.1971 11.047 13.98 11.4904L13.76 11.9404C12.786 11.3985 11.891 10.7256 11.1 9.94036C10.3148 9.14937 9.64182 8.25435 9.1 7.28036L9.52 7.00036C9.96337 6.78327 10.3108 6.40989 10.4954 5.95205C10.68 5.49421 10.6888 4.98427 10.52 4.52036C10.3612 4.09278 10.2309 3.65515 10.13 3.21036C10.08 2.99036 10.04 2.76036 10.01 2.53036C9.88857 1.82598 9.51963 1.1881 8.96962 0.731596C8.41962 0.275093 7.7247 0.0299652 7.01 0.0403564H4.01C3.57903 0.0363098 3.15225 0.12517 2.75871 0.300887C2.36517 0.476604 2.01411 0.735052 1.72943 1.05864C1.44475 1.38222 1.23314 1.76335 1.10899 2.17607C0.984843 2.58879 0.951081 3.02342 1.01 3.45036C1.54274 7.63974 3.45603 11.5322 6.44765 14.513C9.43928 17.4938 13.3387 19.3929 17.53 19.9104H17.91C18.6474 19.9114 19.3594 19.6409 19.91 19.1504C20.2264 18.8674 20.4791 18.5205 20.6515 18.1327C20.8239 17.7448 20.912 17.3248 20.91 16.9004V13.9004C20.8978 13.2057 20.6448 12.5369 20.1943 12.008C19.7439 11.4791 19.1238 11.123 18.44 11.0004ZM18.94 17.0004C18.9398 17.1423 18.9094 17.2827 18.8508 17.412C18.7922 17.5413 18.7067 17.6566 18.6 17.7504C18.4886 17.8474 18.358 17.9198 18.2167 17.9629C18.0754 18.0059 17.9266 18.0187 17.78 18.0004C14.0349 17.5202 10.5562 15.8068 7.89272 13.1306C5.2292 10.4545 3.53241 6.96769 3.07 3.22036C3.05409 3.07387 3.06803 2.92569 3.111 2.78475C3.15397 2.64381 3.22507 2.51304 3.32 2.40036C3.41371 2.29369 3.52906 2.2082 3.65838 2.14957C3.7877 2.09095 3.92802 2.06054 4.07 2.06036H7.07C7.30255 2.05518 7.52962 2.13124 7.71215 2.27543C7.89467 2.41962 8.02121 2.62293 8.07 2.85036C8.11 3.12369 8.16 3.39369 8.22 3.66036C8.33552 4.1875 8.48926 4.70554 8.68 5.21036L7.28 5.86036C7.1603 5.91528 7.05262 5.9933 6.96316 6.08995C6.87369 6.1866 6.8042 6.29997 6.75867 6.42355C6.71314 6.54713 6.69247 6.67849 6.69785 6.81008C6.70323 6.94167 6.73454 7.0709 6.79 7.19036C8.2292 10.2731 10.7072 12.7512 13.79 14.1904C14.0335 14.2904 14.3065 14.2904 14.55 14.1904C14.6747 14.1457 14.7893 14.0768 14.8872 13.9875C14.985 13.8983 15.0642 13.7905 15.12 13.6704L15.74 12.2704C16.257 12.4552 16.7846 12.6088 17.32 12.7304C17.5867 12.7904 17.8567 12.8404 18.13 12.8804C18.3574 12.9291 18.5607 13.0557 18.7049 13.2382C18.8491 13.4207 18.9252 13.6478 18.92 13.8804L18.94 17.0004Z" fill="#22303A"/>
</svg>
