<svg width="24" height="24" viewBox="0 0 24 24" fill="none" xmlns="http://www.w3.org/2000/svg">
<path d="M18.3388 1.10914C17.9509 1.24941 17.5009 1.56892 17.1362 1.96635C16.8879 2.2391 14.4595 5.98746 14.3509 6.26021C14.3121 6.36931 13.9009 6.41607 12.4733 6.50179L11.5888 6.55634L11.7129 6.36931C11.9224 6.08098 11.8759 5.84719 11.5966 5.67575C11.2086 5.43417 11.069 5.49651 10.7431 6.07318C10.4483 6.59531 10.4483 6.59531 10.0371 6.64206C9.18362 6.73558 7.73276 6.78233 7.73276 6.71999C7.74052 6.68103 7.78707 6.56413 7.84138 6.45503C7.98103 6.21346 7.89569 6.03422 7.56983 5.87057C7.23621 5.69133 7.10431 5.76926 6.80948 6.30697C6.66983 6.56413 6.47586 6.80571 6.38276 6.83688C6.29741 6.87585 5.71552 6.92261 5.09483 6.95378C3.5431 7.02391 3.59741 7.00833 3.27155 7.54603C3.12414 7.78761 3 8.02919 3 8.06816C3 8.17726 3.64397 8.52014 3.675 8.42663C3.77586 8.1305 3.89224 8.07595 4.26466 8.17726C4.61379 8.26298 4.63707 8.27856 4.59052 8.48118C4.55172 8.66041 4.575 8.71496 4.71466 8.75393C4.87759 8.80848 5.04052 8.69158 5.11034 8.46559C5.12586 8.41883 5.41293 8.4578 5.77759 8.55911L6.42155 8.73055L6.28966 8.93316C6.16552 9.12019 6.16552 9.13578 6.30517 9.23708C6.5069 9.38515 6.55345 9.36956 6.68534 9.10461C6.75517 8.97213 6.83276 8.87082 6.86379 8.87082C6.89483 8.87082 7.17414 8.92537 7.48448 9.0033C8.02759 9.12798 8.13621 9.21371 7.95776 9.39294C7.89569 9.45528 7.92672 9.50983 8.05862 9.60335C8.24483 9.73583 8.24483 9.74362 8.46983 9.38515C8.53966 9.27605 8.61724 9.28384 9.23017 9.4319C9.77328 9.57218 9.89741 9.62673 9.85862 9.72803C9.76552 9.94623 9.78879 10.0553 9.92845 10.1488C10.0371 10.219 10.0836 10.2112 10.1379 10.1177C10.3707 9.72024 10.3474 9.72024 11.1853 9.93065C11.6121 10.0397 12.0078 10.1411 12.0621 10.1566C12.1397 10.1878 12.1009 10.3203 11.8991 10.6866C11.7517 10.9515 10.9759 12.362 10.1767 13.8193C9.36983 15.2765 8.71034 16.4766 8.71034 16.4844C8.70259 16.4922 7.69397 16.5624 6.4681 16.6325L4.24138 16.7728L3.73707 17.3806C3.45776 17.7079 3.23276 18.004 3.23276 18.0274C3.23276 18.0508 4.35 18.0664 5.71552 18.0664C7.08103 18.0664 8.19828 18.082 8.19828 18.1053C8.19828 18.1209 8.10517 18.3313 7.98879 18.5651C7.75603 19.0483 7.77155 19.1028 8.23707 19.3522L8.52414 19.5003L8.69483 19.3054C8.78017 19.1963 8.92759 19.0093 9.01293 18.8846L9.17586 18.6664L10.3707 20.864C11.0224 22.0719 11.5888 23.0304 11.6198 22.9993C11.6509 22.9603 11.7983 22.633 11.9457 22.2511L12.2172 21.5654L11.3638 19.7185C10.8983 18.7054 10.4793 17.778 10.4328 17.6612C10.3552 17.443 10.1845 17.7313 13.4353 12.627C14.3043 11.2554 14.1336 11.3022 14.9716 12.2451L15.4371 12.7828L15.2974 13.0166C15.1655 13.2504 15.1655 13.266 15.2974 13.3673C15.4914 13.5076 15.5457 13.4998 15.6466 13.305C15.6931 13.2192 15.7552 13.1569 15.7862 13.1725C15.8172 13.1881 16.0422 13.4141 16.2905 13.679L16.7405 14.1544L16.6164 14.4037C16.5466 14.544 16.5 14.6609 16.5155 14.6687C16.531 14.6765 16.6009 14.731 16.6784 14.7856C16.8026 14.8791 16.8336 14.8713 16.9422 14.7233L17.0586 14.5518L17.2526 14.731C17.3612 14.8324 17.5474 15.0428 17.6716 15.1986C17.9043 15.487 17.9043 15.4947 17.7724 15.7363C17.656 15.9779 17.656 15.9935 17.7879 16.0948C17.9819 16.2351 18.0129 16.2273 18.1293 15.9935L18.2379 15.7987L18.6802 16.2896C19.1147 16.7806 19.1224 16.7806 18.9983 16.991C18.8819 17.1936 18.8819 17.217 19.0216 17.3261C19.1612 17.4274 19.1922 17.4196 19.3009 17.2871C19.425 17.1468 19.4328 17.1546 19.7198 17.443C20.0069 17.7391 20.0147 17.7469 19.8828 17.9417C19.7586 18.1365 19.7586 18.1443 20.069 18.3391C20.2474 18.4482 20.4181 18.5184 20.4491 18.495C20.55 18.4404 21 17.6222 21 17.5053C21 17.4507 20.7362 16.8351 20.4103 16.1338L19.8284 14.8557L20.1543 14.3024C20.519 13.6868 20.5112 13.6089 20.0379 13.3517L19.7509 13.1959L19.5259 13.4686L19.3009 13.7414L19.1147 13.3127C19.006 13.079 18.7578 12.5413 18.5638 12.1126C18.3698 11.6918 18.2069 11.31 18.2069 11.271C18.2069 11.2243 18.331 10.9905 18.4784 10.7411C18.8198 10.1722 18.8198 10.0164 18.4784 9.80596C18.1681 9.61114 17.9664 9.6501 17.819 9.92285C17.7647 10.032 17.6948 10.1177 17.6716 10.1177C17.625 10.1177 16.5776 7.84996 16.5776 7.75644C16.5776 7.71748 17.0897 6.78233 17.7181 5.66016C18.3388 4.54579 18.9362 3.40024 19.0448 3.1119C19.3862 2.16897 19.2543 0.992245 18.8043 1.00004C18.7112 1.00783 18.5017 1.05459 18.3388 1.10914Z" fill="black"/>
</svg>
