<svg width="40" height="40" viewBox="0 0 40 40" fill="none" xmlns="http://www.w3.org/2000/svg">
<path fill-rule="evenodd" clip-rule="evenodd" d="M33.3335 13.3732L23.3335 4.60653C22.4168 3.78661 21.23 3.33331 20.0002 3.33331C18.7703 3.33331 17.5835 3.78661 16.6668 4.60653L6.66682 13.3732C6.13744 13.8467 5.71499 14.4275 5.42762 15.0769C5.14024 15.7264 4.99452 16.4297 5.00016 17.1398V31.7065C5.00016 33.0326 5.52696 34.3043 6.46462 35.2421C7.40231 36.1798 8.67409 36.7065 10.0002 36.7065H13.3335C15.0002 36.7065 16.6668 35.0398 16.6668 33.3731V25.0398C16.6668 24.5978 16.8425 24.174 17.155 23.8613C17.4675 23.5488 17.8915 23.3731 18.3335 23.3731H21.6668C22.1088 23.3731 22.5328 23.5488 22.8453 23.8613C23.1578 24.174 23.3335 24.5978 23.3335 25.0398V33.3731C23.3335 35.0398 25.0002 36.7065 26.6668 36.7065H30.0002C31.3262 36.7065 32.598 36.1798 33.5357 35.2421C34.4733 34.3043 35.0002 33.0326 35.0002 31.7065V17.1231C35.0035 16.4158 34.8565 15.7158 34.5693 15.0693C34.282 14.4229 33.8608 13.8448 33.3335 13.3732ZM31.1785 32.883C31.491 32.5703 31.6667 32.1465 31.6667 31.7045V17.1211C31.6663 16.8845 31.6157 16.6506 31.518 16.435C31.4203 16.2195 31.2778 16.0273 31.1 15.8711L21.1 7.12108C20.7958 6.85388 20.4048 6.70653 20 6.70653C19.5952 6.70653 19.2042 6.85388 18.9 7.12108L8.90001 15.8711C8.72222 16.0273 8.57974 16.2195 8.48204 16.435C8.38432 16.6506 8.33364 16.8845 8.33334 17.1211V31.7045C8.33334 32.1465 8.50894 32.5703 8.82149 32.883C9.13406 33.1955 9.55797 33.3711 10 33.3711H13.3333V25.0378C13.3333 23.7116 13.8601 22.4398 14.7978 21.5021C15.7355 20.5645 17.0072 20.0378 18.3333 20.0378H21.6667C22.9927 20.0378 24.2645 20.5645 25.2022 21.5021C26.1398 22.4398 26.6667 23.7116 26.6667 25.0378V33.3711H30C30.442 33.3711 30.866 33.1955 31.1785 32.883Z" fill="white"/>
</svg>
