<svg width="40" height="40" viewBox="0 0 40 40" fill="none" xmlns="http://www.w3.org/2000/svg">
<path d="M24.6168 9.78333C24.9995 10.0006 25.4526 10.0577 25.8772 9.9422C26.3019 9.82667 26.6636 9.54788 26.8834 9.16667C27.0654 8.84559 27.3487 8.59399 27.6891 8.4513C28.0294 8.30861 28.4075 8.28292 28.764 8.37824C29.1205 8.47357 29.4353 8.68452 29.659 8.97802C29.8827 9.27152 30.0027 9.63097 30.0001 10C30.0001 10.442 29.8245 10.8659 29.512 11.1785C29.1994 11.4911 28.7755 11.6667 28.3334 11.6667C27.8914 11.6667 27.4675 11.8423 27.1549 12.1548C26.8424 12.4674 26.6668 12.8913 26.6668 13.3333C26.6668 13.7754 26.8424 14.1993 27.1549 14.5118C27.4675 14.8244 27.8914 15 28.3334 15C29.211 14.9994 30.0729 14.7679 30.8327 14.3287C31.5924 13.8895 32.2232 13.2581 32.6616 12.4979C33.1 11.7377 33.3306 10.8755 33.3302 9.998C33.3299 9.12045 33.0986 8.25845 32.6596 7.49861C32.2205 6.73877 31.5893 6.10786 30.8292 5.66927C30.0691 5.23068 29.207 4.99986 28.3294 5C27.4519 5.00014 26.5898 5.23124 25.8299 5.67007C25.0699 6.10891 24.4389 6.74002 24.0001 7.5C23.8899 7.69022 23.8184 7.90037 23.7898 8.11833C23.7612 8.3363 23.7759 8.55777 23.8332 8.77C23.8906 8.98224 23.9893 9.18104 24.1238 9.35495C24.2582 9.52886 24.4258 9.67445 24.6168 9.78333ZM31.7834 21.6667C31.3459 21.6099 30.9038 21.7289 30.5539 21.9976C30.204 22.2662 29.9749 22.6627 29.9168 23.1C29.567 25.9253 28.1963 28.5252 26.0628 30.41C23.9293 32.2948 21.1803 33.3346 18.3334 33.3333H9.01673L10.1001 32.25C10.4105 31.9377 10.5848 31.5153 10.5848 31.075C10.5848 30.6347 10.4105 30.2123 10.1001 29.9C8.47498 28.2685 7.36904 26.1926 6.92156 23.9338C6.47407 21.6749 6.70505 19.3342 7.5854 17.2064C8.46575 15.0786 9.9561 13.2589 11.8688 11.9765C13.7814 10.6941 16.0307 10.0064 18.3334 10C18.7755 10 19.1994 9.8244 19.512 9.51184C19.8245 9.19928 20.0001 8.77536 20.0001 8.33333C20.0001 7.8913 19.8245 7.46738 19.512 7.15482C19.1994 6.84226 18.7755 6.66667 18.3334 6.66667C15.5155 6.67842 12.7578 7.48373 10.3764 8.99032C7.99498 10.4969 6.08612 12.6439 4.86851 15.1852C3.65089 17.7265 3.17378 20.5595 3.49181 23.3594C3.80985 26.1594 4.91018 28.8132 6.66674 31.0167L3.81674 33.8167C3.58547 34.051 3.42881 34.3487 3.36652 34.672C3.30423 34.9953 3.3391 35.3298 3.46674 35.6333C3.59177 35.9377 3.8041 36.1982 4.07697 36.3821C4.34983 36.566 4.67103 36.665 5.00007 36.6667H18.3334C21.9859 36.6672 25.513 35.335 28.2531 32.9201C30.9933 30.5052 32.7582 27.1735 33.2168 23.55C33.2473 23.3321 33.2343 23.1103 33.1786 22.8974C33.123 22.6846 33.0257 22.4848 32.8924 22.3097C32.7592 22.1347 32.5926 21.9877 32.4022 21.8773C32.2119 21.7669 32.0016 21.6953 31.7834 21.6667ZM28.9668 16.7833C28.6633 16.6491 28.3268 16.6085 28.0001 16.6667L27.7001 16.7667L27.4001 16.9167L27.1501 17.1333C27.0002 17.2869 26.8813 17.468 26.8001 17.6667C26.7016 17.8746 26.6558 18.1035 26.6668 18.3333C26.6619 18.5556 26.7016 18.7766 26.7834 18.9833C26.8696 19.1834 26.9942 19.3646 27.1501 19.5167C27.3058 19.6711 27.4905 19.7933 27.6936 19.8763C27.8967 19.9592 28.1141 20.0013 28.3334 20C28.7755 20 29.1994 19.8244 29.512 19.5118C29.8245 19.1993 30.0001 18.7754 30.0001 18.3333C30.0057 18.1147 29.9601 17.8978 29.8668 17.7C29.6877 17.2995 29.3673 16.9791 28.9668 16.8V16.7833Z" fill="white"/>
</svg>
