<svg width="40" height="40" viewBox="0 0 40 40" fill="none" xmlns="http://www.w3.org/2000/svg">
<path d="M31.6668 10H26.6668V8.33333C26.6668 7.44928 26.3157 6.60143 25.6905 5.97631C25.0654 5.35119 24.2176 5 23.3335 5H16.6668C15.7828 5 14.9349 5.35119 14.3098 5.97631C13.6847 6.60143 13.3335 7.44928 13.3335 8.33333V10H8.3335C7.00742 10 5.73565 10.5268 4.79797 11.4645C3.86029 12.4021 3.3335 13.6739 3.3335 15V30C3.3335 31.3261 3.86029 32.5979 4.79797 33.5355C5.73565 34.4732 7.00742 35 8.3335 35H31.6668C32.9929 35 34.2647 34.4732 35.2024 33.5355C36.1401 32.5979 36.6668 31.3261 36.6668 30V15C36.6668 13.6739 36.1401 12.4021 35.2024 11.4645C34.2647 10.5268 32.9929 10 31.6668 10ZM16.6668 8.33333H23.3335V10H16.6668V8.33333ZM33.3335 30C33.3335 30.442 33.1579 30.866 32.8454 31.1785C32.5328 31.4911 32.1089 31.6667 31.6668 31.6667H8.3335C7.89148 31.6667 7.46755 31.4911 7.15499 31.1785C6.84243 30.866 6.66684 30.442 6.66684 30V20.65L14.4668 23.3333C14.6438 23.3573 14.8232 23.3573 15.0002 23.3333H25.0002C25.1809 23.33 25.3604 23.302 25.5335 23.25L33.3335 20.65V30ZM33.3335 17.1333L24.7335 20H15.2668L6.66684 17.1333V15C6.66684 14.558 6.84243 14.134 7.15499 13.8215C7.46755 13.5089 7.89148 13.3333 8.3335 13.3333H31.6668C32.1089 13.3333 32.5328 13.5089 32.8454 13.8215C33.1579 14.134 33.3335 14.558 33.3335 15V17.1333Z" fill="white"/>
</svg>
