<svg width="40" height="40" viewBox="0 0 40 40" fill="none" xmlns="http://www.w3.org/2000/svg">
<g id="Icons">
<path id="Vector" d="M30 7.46672C27.3478 4.81456 23.7507 3.32458 20 3.32458C16.2493 3.32458 12.6521 4.81456 9.99998 7.46672C7.34782 10.1189 5.85785 13.716 5.85785 17.4667C5.85785 21.2174 7.34782 24.8146 9.99998 27.4667L18.7833 36.2667C18.9383 36.4229 19.1226 36.5469 19.3257 36.6315C19.5288 36.7162 19.7466 36.7597 19.9667 36.7597C20.1867 36.7597 20.4045 36.7162 20.6076 36.6315C20.8107 36.5469 20.995 36.4229 21.15 36.2667L30 27.3834C32.6411 24.7423 34.1248 21.1601 34.1248 17.4251C34.1248 13.69 32.6411 10.1079 30 7.46672ZM27.6166 25.0001L20 32.6501L12.3833 25.0001C10.8786 23.4939 9.85411 21.5755 9.43948 19.4872C9.02484 17.3989 9.23863 15.2346 10.0538 13.2679C10.869 11.3011 12.249 9.62014 14.0194 8.43752C15.7897 7.25489 17.871 6.62369 20 6.62369C22.129 6.62369 24.2102 7.25489 25.9806 8.43752C27.751 9.62014 29.1309 11.3011 29.9461 13.2679C30.7613 15.2346 30.9751 17.3989 30.5605 19.4872C30.1459 21.5755 29.1214 23.4939 27.6166 25.0001ZM15 12.3501C13.6545 13.6997 12.899 15.5277 12.899 17.4334C12.899 19.3391 13.6545 21.1671 15 22.5167C15.9996 23.518 17.2726 24.2019 18.6594 24.4824C20.0462 24.7629 21.4849 24.6277 22.7951 24.0936C24.1053 23.5596 25.2286 22.6505 26.0241 21.4805C26.8196 20.3104 27.2519 18.9315 27.2667 17.5167C27.2742 16.5721 27.0922 15.6355 26.7315 14.7624C26.3708 13.8892 25.8387 13.0973 25.1667 12.4334C24.5061 11.7577 23.7185 11.2193 22.849 10.8492C21.9796 10.479 21.0456 10.2845 20.1007 10.2768C19.1558 10.269 18.2186 10.4482 17.3433 10.804C16.4679 11.1599 15.6715 11.6853 15 12.3501ZM22.8167 20.1501C22.1851 20.7913 21.3503 21.1932 20.4552 21.2871C19.5601 21.3811 18.6601 21.1611 17.9092 20.6649C17.1582 20.1687 16.603 19.4271 16.3383 18.5669C16.0737 17.7066 16.1161 16.7811 16.4582 15.9486C16.8004 15.1162 17.4212 14.4284 18.2143 14.0029C19.0074 13.5775 19.9237 13.4407 20.8065 13.6161C21.6894 13.7914 22.4838 14.268 23.0542 14.9643C23.6245 15.6606 23.9353 16.5333 23.9333 17.4334C23.9091 18.4622 23.4775 19.4393 22.7333 20.1501H22.8167Z" fill="#22303A"/>
</g>
</svg>
