<svg width="40" height="40" viewBox="0 0 40 40" fill="none" xmlns="http://www.w3.org/2000/svg">
<path d="M30.0001 7.46673C27.3479 4.81457 23.7508 3.32458 20.0001 3.32458C16.2494 3.32458 12.6522 4.81457 10 7.46673C7.34788 10.1189 5.85791 13.716 5.85791 17.4667C5.85791 21.2174 7.34788 24.8146 10 27.4667L18.7834 36.2667C18.9384 36.4229 19.1227 36.5469 19.3258 36.6315C19.5289 36.7162 19.7467 36.7597 19.9668 36.7597C20.1868 36.7597 20.4046 36.7162 20.6077 36.6315C20.8108 36.5469 20.9951 36.4229 21.1501 36.2667L30.0001 27.3834C32.6412 24.7423 34.1249 21.1601 34.1249 17.4251C34.1249 13.69 32.6412 10.1079 30.0001 7.46673ZM27.6167 25.0001L20.0001 32.6501L12.3834 25.0001C10.8787 23.4939 9.85417 21.5755 9.43954 19.4872C9.0249 17.3989 9.23869 15.2346 10.0539 13.2679C10.8691 11.3011 12.2491 9.62014 14.0195 8.43752C15.7898 7.25489 17.8711 6.6237 20.0001 6.6237C22.1291 6.6237 24.2103 7.25489 25.9807 8.43752C27.7511 9.62014 29.131 11.3011 29.9462 13.2679C30.7614 15.2346 30.9752 17.3989 30.5606 19.4872C30.146 21.5755 29.1215 23.4939 27.6167 25.0001ZM15.0001 12.3501C13.6546 13.6997 12.8991 15.5277 12.8991 17.4334C12.8991 19.3391 13.6546 21.1671 15.0001 22.5167C15.9997 23.518 17.2727 24.2019 18.6595 24.4824C20.0463 24.7629 21.485 24.6277 22.7952 24.0936C24.1054 23.5596 25.2287 22.6505 26.0242 21.4805C26.8197 20.3104 27.252 18.9315 27.2668 17.5167C27.2743 16.5721 27.0923 15.6355 26.7316 14.7624C26.3709 13.8892 25.8388 13.0973 25.1668 12.4334C24.5062 11.7577 23.7186 11.2193 22.8491 10.8492C21.9797 10.479 21.0457 10.2845 20.1008 10.2768C19.1559 10.269 18.2187 10.4482 17.3434 10.804C16.468 11.1599 15.6716 11.6853 15.0001 12.3501ZM22.8168 20.1501C22.1852 20.7913 21.3504 21.1932 20.4553 21.2871C19.5602 21.3811 18.6602 21.1611 17.9093 20.6649C17.1583 20.1687 16.6031 19.4271 16.3384 18.5669C16.0738 17.7066 16.1162 16.7811 16.4583 15.9486C16.8005 15.1162 17.4213 14.4284 18.2144 14.0029C19.0075 13.5775 19.9238 13.4407 20.8066 13.6161C21.6895 13.7914 22.4839 14.268 23.0543 14.9643C23.6246 15.6606 23.9354 16.5333 23.9334 17.4334C23.9092 18.4622 23.4776 19.4393 22.7334 20.1501H22.8168Z" fill="white"/>
</svg>
