<svg width="40" height="40" viewBox="0 0 40 40" fill="none" xmlns="http://www.w3.org/2000/svg">
<g id="Icons">
<path id="Vector" d="M24.6167 9.78333C24.9994 10.0006 25.4525 10.0577 25.8771 9.9422C26.3018 9.82667 26.6635 9.54788 26.8833 9.16667C27.0653 8.84559 27.3486 8.59399 27.689 8.4513C28.0293 8.30861 28.4074 8.28292 28.7639 8.37824C29.1204 8.47357 29.4352 8.68452 29.6589 8.97802C29.8826 9.27152 30.0026 9.63097 30 10C30 10.442 29.8244 10.8659 29.5119 11.1785C29.1993 11.4911 28.7754 11.6667 28.3333 11.6667C27.8913 11.6667 27.4674 11.8423 27.1548 12.1548C26.8423 12.4674 26.6667 12.8913 26.6667 13.3333C26.6667 13.7754 26.8423 14.1993 27.1548 14.5118C27.4674 14.8244 27.8913 15 28.3333 15C29.2109 14.9994 30.0728 14.7679 30.8326 14.3287C31.5923 13.8895 32.2231 13.2581 32.6615 12.4979C33.0999 11.7377 33.3305 10.8755 33.3301 9.998C33.3298 9.12045 33.0985 8.25845 32.6595 7.49861C32.2204 6.73877 31.5892 6.10786 30.8291 5.66927C30.069 5.23068 29.2069 4.99986 28.3293 5C27.4518 5.00014 26.5897 5.23124 25.8298 5.67007C25.0698 6.10891 24.4388 6.74002 24 7.5C23.8898 7.69022 23.8183 7.90037 23.7897 8.11833C23.7611 8.3363 23.7758 8.55777 23.8331 8.77C23.8905 8.98224 23.9892 9.18104 24.1237 9.35495C24.2581 9.52886 24.4257 9.67445 24.6167 9.78333ZM31.7833 21.6667C31.3458 21.6099 30.9037 21.7289 30.5538 21.9976C30.2039 22.2662 29.9748 22.6627 29.9167 23.1C29.5669 25.9253 28.1962 28.5252 26.0627 30.41C23.9292 32.2948 21.1802 33.3346 18.3333 33.3333H9.01667L10.1 32.25C10.4104 31.9377 10.5847 31.5153 10.5847 31.075C10.5847 30.6347 10.4104 30.2123 10.1 29.9C8.47492 28.2685 7.36898 26.1926 6.9215 23.9338C6.47401 21.6749 6.70499 19.3342 7.58534 17.2064C8.46569 15.0786 9.95604 13.2589 11.8687 11.9765C13.7813 10.6941 16.0306 10.0064 18.3333 10C18.7754 10 19.1993 9.8244 19.5119 9.51184C19.8244 9.19928 20 8.77536 20 8.33333C20 7.8913 19.8244 7.46738 19.5119 7.15482C19.1993 6.84226 18.7754 6.66667 18.3333 6.66667C15.5154 6.67842 12.7577 7.48373 10.3763 8.99032C7.99492 10.4969 6.08606 12.6439 4.86845 15.1852C3.65083 17.7265 3.17372 20.5595 3.49175 23.3594C3.80979 26.1594 4.91012 28.8132 6.66668 31.0167L3.81668 33.8167C3.58541 34.051 3.42875 34.3487 3.36646 34.672C3.30417 34.9953 3.33904 35.3298 3.46668 35.6333C3.59171 35.9377 3.80404 36.1982 4.07691 36.3821C4.34977 36.566 4.67097 36.665 5.00001 36.6667H18.3333C21.9858 36.6672 25.5129 35.335 28.253 32.9201C30.9932 30.5052 32.7581 27.1735 33.2167 23.55C33.2472 23.3321 33.2342 23.1103 33.1785 22.8974C33.1229 22.6846 33.0256 22.4848 32.8923 22.3097C32.7591 22.1347 32.5925 21.9877 32.4021 21.8773C32.2118 21.7669 32.0015 21.6953 31.7833 21.6667ZM28.9667 16.7833C28.6632 16.6491 28.3267 16.6085 28 16.6667L27.7 16.7667L27.4 16.9167L27.15 17.1333C27.0001 17.2869 26.8812 17.468 26.8 17.6667C26.7015 17.8746 26.6557 18.1035 26.6667 18.3333C26.6618 18.5556 26.7015 18.7766 26.7833 18.9833C26.8695 19.1834 26.9941 19.3646 27.15 19.5167C27.3057 19.6711 27.4904 19.7933 27.6935 19.8763C27.8966 19.9592 28.114 20.0013 28.3333 20C28.7754 20 29.1993 19.8244 29.5119 19.5118C29.8244 19.1993 30 18.7754 30 18.3333C30.0056 18.1147 29.96 17.8978 29.8667 17.7C29.6876 17.2995 29.3672 16.9791 28.9667 16.8V16.7833Z" fill="#22303A"/>
</g>
</svg>
