<svg width="40" height="40" viewBox="0 0 40 40" fill="none" xmlns="http://www.w3.org/2000/svg">
<path d="M35.6835 14.4C35.6835 14.4 35.6835 14.4 35.6835 14.3167C34.5091 11.1104 32.3783 8.34214 29.5793 6.38644C26.7803 4.43074 23.4481 3.38196 20.0335 3.38196C16.6189 3.38196 13.2867 4.43074 10.4877 6.38644C7.68864 8.34214 5.55783 11.1104 4.38349 14.3167C4.38349 14.3167 4.38349 14.3167 4.38349 14.4C3.07204 18.0182 3.07204 21.9818 4.38349 25.6C4.38349 25.6 4.38349 25.6 4.38349 25.6833C5.55783 28.8896 7.68864 31.6579 10.4877 33.6136C13.2867 35.5693 16.6189 36.6181 20.0335 36.6181C23.4481 36.6181 26.7803 35.5693 29.5793 33.6136C32.3783 31.6579 34.5091 28.8896 35.6835 25.6833C35.6835 25.6833 35.6835 25.6833 35.6835 25.6C36.9949 21.9818 36.9949 18.0182 35.6835 14.4ZM7.10016 23.3333C6.52221 21.1487 6.52221 18.8513 7.10016 16.6667H10.2001C9.93355 18.8809 9.93355 21.1191 10.2001 23.3333H7.10016ZM8.46683 26.6667H10.8001C11.1913 28.1531 11.7505 29.5901 12.4668 30.95C10.8323 29.8366 9.46599 28.3734 8.46683 26.6667ZM10.8001 13.3333H8.46683C9.45161 11.6318 10.8005 10.1691 12.4168 9.05C11.7177 10.4121 11.1754 11.849 10.8001 13.3333ZM18.3335 32.8333C16.2864 31.3311 14.8487 29.1421 14.2835 26.6667H18.3335V32.8333ZM18.3335 23.3333H13.5668C13.2558 21.122 13.2558 18.878 13.5668 16.6667H18.3335V23.3333ZM18.3335 13.3333H14.2835C14.8487 10.858 16.2864 8.66887 18.3335 7.16667V13.3333ZM31.5335 13.3333H29.2001C28.8089 11.8469 28.2498 10.4099 27.5335 9.05C29.168 10.1635 30.5343 11.6266 31.5335 13.3333ZM21.6668 7.16667C23.7139 8.66887 25.1516 10.858 25.7168 13.3333H21.6668V7.16667ZM21.6668 32.8333V26.6667H25.7168C25.1516 29.1421 23.7139 31.3311 21.6668 32.8333ZM26.4335 23.3333H21.6668V16.6667H26.4335C26.7445 18.878 26.7445 21.122 26.4335 23.3333ZM27.5835 30.95C28.2998 29.5901 28.8589 28.1531 29.2501 26.6667H31.5835C30.5843 28.3734 29.218 29.8366 27.5835 30.95ZM32.9001 23.3333H29.8001C29.9357 22.2274 30.0025 21.1142 30.0001 20C30.002 18.8858 29.9352 17.7726 29.8001 16.6667H32.9001C33.4781 18.8513 33.4781 21.1487 32.9001 23.3333Z" fill="white"/>
</svg>
