<svg width="40" height="40" viewBox="0 0 40 40" fill="none" xmlns="http://www.w3.org/2000/svg">
<g id="Icons">
<path id="Vector" d="M31.6666 10H26.6666V8.33333C26.6666 7.44928 26.3155 6.60143 25.6903 5.97631C25.0652 5.35119 24.2174 5 23.3333 5H16.6666C15.7826 5 14.9347 5.35119 14.3096 5.97631C13.6845 6.60143 13.3333 7.44928 13.3333 8.33333V10H8.33331C7.00723 10 5.73546 10.5268 4.79778 11.4645C3.8601 12.4021 3.33331 13.6739 3.33331 15V30C3.33331 31.3261 3.8601 32.5979 4.79778 33.5355C5.73546 34.4732 7.00723 35 8.33331 35H31.6666C32.9927 35 34.2645 34.4732 35.2022 33.5355C36.1399 32.5979 36.6666 31.3261 36.6666 30V15C36.6666 13.6739 36.1399 12.4021 35.2022 11.4645C34.2645 10.5268 32.9927 10 31.6666 10ZM16.6666 8.33333H23.3333V10H16.6666V8.33333ZM33.3333 30C33.3333 30.442 33.1577 30.866 32.8452 31.1785C32.5326 31.4911 32.1087 31.6667 31.6666 31.6667H8.33331C7.89129 31.6667 7.46736 31.4911 7.1548 31.1785C6.84224 30.866 6.66665 30.442 6.66665 30V20.65L14.4666 23.3333C14.6436 23.3573 14.823 23.3573 15 23.3333H25C25.1807 23.33 25.3602 23.302 25.5333 23.25L33.3333 20.65V30ZM33.3333 17.1333L24.7333 20H15.2666L6.66665 17.1333V15C6.66665 14.558 6.84224 14.134 7.1548 13.8215C7.46736 13.5089 7.89129 13.3333 8.33331 13.3333H31.6666C32.1087 13.3333 32.5326 13.5089 32.8452 13.8215C33.1577 14.134 33.3333 14.558 33.3333 15V17.1333Z" fill="#22303A"/>
</g>
</svg>
