<svg width="40" height="40" viewBox="0 0 40 40" fill="none" xmlns="http://www.w3.org/2000/svg">
<g id="Icons">
<path id="Vector" d="M35.6834 14.4C35.6834 14.4 35.6834 14.4 35.6834 14.3167C34.509 11.1104 32.3782 8.34214 29.5792 6.38644C26.7802 4.43074 23.448 3.38196 20.0334 3.38196C16.6188 3.38196 13.2866 4.43074 10.4876 6.38644C7.68852 8.34214 5.55771 11.1104 4.38337 14.3167C4.38337 14.3167 4.38337 14.3167 4.38337 14.4C3.07192 18.0182 3.07192 21.9818 4.38337 25.6C4.38337 25.6 4.38337 25.6 4.38337 25.6833C5.55771 28.8896 7.68852 31.6579 10.4876 33.6136C13.2866 35.5693 16.6188 36.6181 20.0334 36.6181C23.448 36.6181 26.7802 35.5693 29.5792 33.6136C32.3782 31.6579 34.509 28.8896 35.6834 25.6833C35.6834 25.6833 35.6834 25.6833 35.6834 25.6C36.9948 21.9818 36.9948 18.0182 35.6834 14.4ZM7.10004 23.3333C6.52209 21.1487 6.52209 18.8513 7.10004 16.6667H10.2C9.93343 18.8809 9.93343 21.1191 10.2 23.3333H7.10004ZM8.46671 26.6667H10.8C11.1912 28.1531 11.7504 29.5901 12.4667 30.95C10.8322 29.8366 9.46587 28.3734 8.46671 26.6667ZM10.8 13.3333H8.46671C9.45149 11.6318 10.8004 10.1691 12.4167 9.05C11.7176 10.4121 11.1753 11.849 10.8 13.3333ZM18.3334 32.8333C16.2863 31.3311 14.8486 29.1421 14.2834 26.6667H18.3334V32.8333ZM18.3334 23.3333H13.5667C13.2557 21.122 13.2557 18.878 13.5667 16.6667H18.3334V23.3333ZM18.3334 13.3333H14.2834C14.8486 10.858 16.2863 8.66887 18.3334 7.16667V13.3333ZM31.5334 13.3333H29.2C28.8088 11.8469 28.2497 10.4099 27.5334 9.05C29.1679 10.1635 30.5342 11.6266 31.5334 13.3333ZM21.6667 7.16667C23.7138 8.66887 25.1515 10.858 25.7167 13.3333H21.6667V7.16667ZM21.6667 32.8333V26.6667H25.7167C25.1515 29.1421 23.7138 31.3311 21.6667 32.8333ZM26.4334 23.3333H21.6667V16.6667H26.4334C26.7444 18.878 26.7444 21.122 26.4334 23.3333ZM27.5834 30.95C28.2997 29.5901 28.8588 28.1531 29.25 26.6667H31.5834C30.5842 28.3734 29.2179 29.8366 27.5834 30.95ZM32.9 23.3333H29.8C29.9356 22.2274 30.0024 21.1142 30 20C30.0019 18.8858 29.9351 17.7726 29.8 16.6667H32.9C33.478 18.8513 33.478 21.1487 32.9 23.3333Z" fill="#22303A"/>
</g>
</svg>
