<svg width="150" height="219" viewBox="0 0 150 219" fill="none" xmlns="http://www.w3.org/2000/svg">
<path d="M142.963 197.435L140.926 192.287H130.778L128.852 197.435H121.963L132.963 171.213H139.111L150 197.435H142.963ZM135.926 178.212L132.592 187.212H139.185L135.926 178.212Z" fill="#D1B06B"/>
<path d="M107.481 197.435L97.7406 185.361H97.6666V197.435H91.4443V171.213H97.6666V181.879H97.7776L107.148 171.213H115.074L103.778 183.287L115.741 197.435H107.481Z" fill="#D1B06B"/>
<path d="M76.9629 197.435L67.222 185.361H67.1481V197.435H60.9258V171.213H67.1481V181.879H67.259L76.6296 171.213H84.5555L73.2591 183.287L85.222 197.435H76.9629Z" fill="#D1B06B"/>
<path d="M47.6667 197.435L45.6295 192.287H35.4814L33.5555 197.435H26.6667L37.6666 171.213H43.8149L54.7038 197.435H47.6667ZM40.6296 178.212L37.2963 187.212H43.8889L40.6296 178.212Z" fill="#D1B06B"/>
<path d="M20.4444 189.805C20.4444 191.237 20.1606 192.441 19.5926 193.416C19.025 194.392 18.2717 195.175 17.3335 195.768C16.3952 196.361 15.3272 196.787 14.1297 197.046C12.9322 197.305 11.7037 197.435 10.4447 197.435H0.000305176V171.213H10.4447C11.4569 171.213 12.494 171.318 13.5556 171.527C14.6173 171.737 15.5804 172.095 16.4446 172.602C17.3089 173.108 18.0124 173.793 18.5555 174.657C19.099 175.521 19.3703 176.62 19.3703 177.953C19.3703 179.41 18.9755 180.614 18.1853 181.564C17.3953 182.515 16.3582 183.2 15.0743 183.62V183.694C15.8148 183.817 16.5126 184.046 17.1667 184.379C17.8211 184.713 18.3891 185.139 18.8706 185.657C19.3518 186.175 19.7345 186.78 20.0187 187.472C20.3025 188.163 20.4444 188.941 20.4444 189.805ZM14.1112 189.212C14.1112 188.126 13.7039 187.373 12.8891 186.953C12.0743 186.534 10.9878 186.324 9.62984 186.324H6.11129V192.324H9.66684C10.1605 192.324 10.673 192.28 11.204 192.194C11.7346 192.107 12.2162 191.953 12.6483 191.731C13.0804 191.509 13.4322 191.194 13.7039 190.787C13.9753 190.379 14.1112 189.854 14.1112 189.212ZM13.2594 178.805C13.2594 177.916 12.9201 177.268 12.2408 176.861C11.5618 176.453 10.5556 176.25 9.22226 176.25H6.11129V181.657H9.51853C10.7039 181.657 11.6237 181.416 12.2778 180.935C12.9322 180.453 13.2594 179.743 13.2594 178.805Z" fill="#D1B06B"/>
<path d="M5.54712 210.245V218.648H2.99041V210.245H0.000305176V208.063H8.53726V210.245H5.54712ZM34.1685 218.648L31.8809 214.447H31.0138V218.648H28.502V208.063H32.5388C33.0472 208.063 33.5431 208.115 34.0262 208.219C34.5097 208.324 34.9434 208.501 35.3271 208.75C35.7107 209 36.0175 209.328 36.2465 209.737C36.4758 210.146 36.5906 210.654 36.5906 211.262C36.5906 211.98 36.3961 212.582 36.0073 213.071C35.6185 213.559 35.0805 213.908 34.3927 214.118L37.1586 218.648H34.1685ZM34.0639 211.307C34.0639 211.057 34.0116 210.856 33.9067 210.701C33.8021 210.547 33.6675 210.427 33.5032 210.342C33.3387 210.258 33.1543 210.201 32.9499 210.171C32.7455 210.141 32.5487 210.126 32.3593 210.126H30.9988V212.593H32.2097C32.4193 212.593 32.6335 212.575 32.8526 212.54C33.072 212.505 33.2714 212.443 33.4509 212.353C33.6302 212.264 33.7772 212.134 33.892 211.965C34.0065 211.795 34.0639 211.576 34.0639 211.307ZM64.3895 218.648L63.5673 216.57H59.4706L58.6931 218.648H55.9125L60.3527 208.063H62.8348L67.2303 218.648H64.3895ZM61.5489 210.888L60.2031 214.521H62.8644L61.5489 210.888ZM91.7103 218.648H89.1536L85.1468 208.063H88.0173L90.4694 215.568H90.529L92.9661 208.063H95.7917L91.7103 218.648ZM115.458 218.648V208.063H122.574V210.23H117.924V212.219H122.32V214.267H117.924V216.465H122.843V218.648H115.458ZM143.332 218.648V208.063H145.903V216.42H150V218.648H143.332Z" fill="white"/>
<path fill-rule="evenodd" clip-rule="evenodd" d="M71.875 128.125L75 125L78.125 128.125L75 131.25L71.875 128.125ZM62.5003 125L68.75 118.75L71.875 121.875L65.6249 128.125L75 137.5L112.5 100L96.8751 84.375L93.7501 87.5L106.25 100L100 106.25L93.7501 100L81.25 112.5L78.125 109.375L90.6251 96.8751L87.5001 93.7501L71.875 109.375L81.25 118.75L93.7501 106.25L96.8751 109.375L81.25 125L68.75 112.5L59.3752 121.875L62.5003 125Z" fill="white"/>
<path fill-rule="evenodd" clip-rule="evenodd" d="M56.2502 118.75L59.3753 115.625L56.2502 112.5L53.1252 115.625L56.2502 118.75Z" fill="white"/>
<path fill-rule="evenodd" clip-rule="evenodd" d="M62.5003 112.5L65.6249 109.375L62.5 106.25L59.3749 109.375L62.5003 112.5Z" fill="white"/>
<path fill-rule="evenodd" clip-rule="evenodd" d="M112.5 112.5L115.625 109.375L112.5 106.25L109.375 109.375L112.5 112.5Z" fill="white"/>
<path fill-rule="evenodd" clip-rule="evenodd" d="M78.125 21.8751L75 25.0001L71.8749 21.8751L75 18.7501L78.125 21.8751ZM87.5 25.0001L81.25 31.2501L78.125 28.1251L84.375 21.8751L75 12.5001L37.5001 50.0002L53.1252 65.6253L56.2502 62.5003L43.7501 50.0002L50.0002 43.7502L56.2502 50.0002L68.7499 37.5002L71.8749 40.6252L59.3749 53.1252L62.4999 56.2502L78.125 40.6252L68.7499 31.2501L56.2502 43.7502L53.1252 40.6252L68.7499 25.0001L81.25 37.5002L90.625 28.1251L87.5 25.0001Z" fill="white"/>
<path fill-rule="evenodd" clip-rule="evenodd" d="M93.75 31.2501L90.6251 34.3751L93.75 37.5002L96.8751 34.3751L93.75 31.2501Z" fill="white"/>
<path fill-rule="evenodd" clip-rule="evenodd" d="M87.5 37.5002L84.375 40.6252L87.5 43.7502L90.625 40.6252L87.5 37.5002Z" fill="white"/>
<path fill-rule="evenodd" clip-rule="evenodd" d="M37.5001 37.5002L34.3751 40.6252L37.5001 43.7502L40.6252 40.6252L37.5001 37.5002Z" fill="white"/>
<path fill-rule="evenodd" clip-rule="evenodd" d="M21.8751 71.875L25.0001 75L21.8751 78.125L18.7501 75L21.8751 71.875ZM25.0001 62.5002L31.2501 68.7503L28.1251 71.875L21.8751 65.6253L12.5001 75L50.0002 112.5L65.6249 96.8751L62.5003 93.7501L50.0002 106.25L43.7502 100L50.0002 93.7501L37.5002 81.25L40.6252 78.125L53.1252 90.6251L56.2502 87.5L40.6252 71.875L31.2501 81.25L43.7502 93.7501L40.6252 96.8751L25.0001 81.25L37.5002 68.7503L28.1251 59.3753L25.0001 62.5002Z" fill="white"/>
<path fill-rule="evenodd" clip-rule="evenodd" d="M31.2501 56.2502L34.3751 59.3753L37.5002 56.2502L34.3751 53.1252L31.2501 56.2502Z" fill="white"/>
<path fill-rule="evenodd" clip-rule="evenodd" d="M37.5002 62.5002L40.6252 65.6253L43.7502 62.5002L40.6252 59.3753L37.5002 62.5002Z" fill="white"/>
<path fill-rule="evenodd" clip-rule="evenodd" d="M37.5002 112.5L40.6252 115.625L43.7502 112.5L40.6252 109.375L37.5002 112.5Z" fill="white"/>
<path fill-rule="evenodd" clip-rule="evenodd" d="M128.125 78.125L125 75L128.125 71.875L131.25 75L128.125 78.125ZM125 87.5L118.75 81.25L121.875 78.125L128.125 84.375L137.5 75L100 37.5002L84.375 53.1252L87.5 56.2503L100 43.7502L106.25 50.0002L100 56.2503L112.5 68.75L109.375 71.875L96.875 59.3753L93.75 62.5003L109.375 78.125L118.75 68.75L106.25 56.2503L109.375 53.1252L125 68.75L112.5 81.25L121.875 90.6251L125 87.5Z" fill="white"/>
<path fill-rule="evenodd" clip-rule="evenodd" d="M118.75 93.7501L115.625 90.625L112.5 93.7501L115.625 96.8751L118.75 93.7501Z" fill="white"/>
<path fill-rule="evenodd" clip-rule="evenodd" d="M112.5 87.5L109.375 84.375L106.25 87.5L109.375 90.625L112.5 87.5Z" fill="white"/>
<path fill-rule="evenodd" clip-rule="evenodd" d="M112.5 37.5002L109.375 34.3752L106.25 37.5002L109.375 40.6252L112.5 37.5002Z" fill="white"/>
<path fill-rule="evenodd" clip-rule="evenodd" d="M75 50.0002L50.0002 75L75.0003 100L100 75.0003L75 50.0002Z" fill="#D1B06B"/>
<path fill-rule="evenodd" clip-rule="evenodd" d="M0 75.0003L3.12502 78.125L6.25001 75.0003L3.12502 71.8753L0 75.0003Z" fill="white"/>
<path fill-rule="evenodd" clip-rule="evenodd" d="M71.875 146.875L75 150L78.125 146.875L75 143.75L71.875 146.875Z" fill="white" stroke="#D1B06B" stroke-width="0.288" stroke-miterlimit="22.9256"/>
<path fill-rule="evenodd" clip-rule="evenodd" d="M71.875 3.12502L75 0L78.125 3.12502L75 6.25002L71.875 3.12502Z" fill="white"/>
<path fill-rule="evenodd" clip-rule="evenodd" d="M150 75L146.875 78.125L143.75 75L146.875 71.875L150 75Z" fill="white"/>
<path fill-rule="evenodd" clip-rule="evenodd" d="M0 75.0003L31.2501 43.7502L34.3751 46.8752L3.12502 78.1253L0 75.0003Z" fill="white"/>
<path fill-rule="evenodd" clip-rule="evenodd" d="M40.6252 34.3751L75 0L78.1247 3.12502L43.7502 37.5001L40.6252 34.3751Z" fill="white"/>
<path fill-rule="evenodd" clip-rule="evenodd" d="M150 75L115.625 40.6252L112.5 43.7502L146.875 78.125L150 75Z" fill="white"/>
<path fill-rule="evenodd" clip-rule="evenodd" d="M106.25 31.2501L75 0L71.875 3.12502L103.125 34.3751L106.25 31.2501Z" fill="white"/>
<path fill-rule="evenodd" clip-rule="evenodd" d="M78.1247 146.875L46.8752 115.625L43.7502 118.75L75 150L78.1247 146.875Z" fill="white"/>
<path fill-rule="evenodd" clip-rule="evenodd" d="M37.5001 106.25L3.12502 71.8753L0 75.0003L34.3751 109.375L37.5001 106.25Z" fill="white"/>
<path fill-rule="evenodd" clip-rule="evenodd" d="M71.875 146.875L106.25 112.5L109.375 115.625L75 150L71.875 146.875Z" fill="white"/>
<path fill-rule="evenodd" clip-rule="evenodd" d="M115.625 103.125L146.875 71.875L150 75L118.75 106.25L115.625 103.125Z" fill="white"/>
</svg>
