<svg width="120" height="121" viewBox="0 0 120 121" fill="none" xmlns="http://www.w3.org/2000/svg">
<path fill-rule="evenodd" clip-rule="evenodd" d="M57.5 102.5L60 100L62.5 102.5L60 105L57.5 102.5ZM50.0002 100L55 95.0001L57.5 97.5001L52.4999 102.5L60 110L90.0001 80.0001L77.5001 67.5L75 70L85.0001 80.0001L80.0001 85.0001L75 80.0001L65 90.0001L62.5 87.5001L72.5 77.5L70 75L57.5 87.5001L65 95.0001L75 85.0001L77.5001 87.5001L65 100L55 90.0001L47.5002 97.5001L50.0002 100Z" fill="#22303A"/>
<path fill-rule="evenodd" clip-rule="evenodd" d="M45.0002 95.0002L47.5002 92.5001L45.0002 90.0001L42.5002 92.5001L45.0002 95.0002Z" fill="#22303A"/>
<path fill-rule="evenodd" clip-rule="evenodd" d="M50.0002 90.0001L52.4999 87.5001L50 85.0001L47.4999 87.5001L50.0002 90.0001Z" fill="#22303A"/>
<path fill-rule="evenodd" clip-rule="evenodd" d="M90.0001 90.0001L92.5001 87.5001L90.0001 85.0001L87.5001 87.5001L90.0001 90.0001Z" fill="#22303A"/>
<path fill-rule="evenodd" clip-rule="evenodd" d="M62.5 17.5L60 20L57.5 17.5L60 15L62.5 17.5ZM70 20L65 25.0001L62.5 22.5001L67.5 17.5L60 10L30.0001 40.0001L42.5002 52.5002L45.0002 50.0002L35.0001 40.0001L40.0002 35.0001L45.0002 40.0001L55 30.0001L57.5 32.5001L47.4999 42.5001L50 45.0002L62.5 32.5001L55 25.0001L45.0002 35.0001L42.5002 32.5001L55 20L65 30.0001L72.5 22.5001L70 20Z" fill="#22303A"/>
<path fill-rule="evenodd" clip-rule="evenodd" d="M75.0001 25.0001L72.5001 27.5001L75.0001 30.0001L77.5001 27.5001L75.0001 25.0001Z" fill="#22303A"/>
<path fill-rule="evenodd" clip-rule="evenodd" d="M70 30.0001L67.5 32.5001L70 35.0002L72.5 32.5001L70 30.0001Z" fill="#22303A"/>
<path fill-rule="evenodd" clip-rule="evenodd" d="M30.0001 30.0001L27.5001 32.5001L30.0001 35.0002L32.5002 32.5001L30.0001 30.0001Z" fill="#22303A"/>
<path fill-rule="evenodd" clip-rule="evenodd" d="M17.5001 57.4999L20.0001 59.9999L17.5001 62.4999L15.0001 59.9999L17.5001 57.4999ZM20.0001 50.0001L25.0001 55.0001L22.5001 57.4999L17.5001 52.5001L10.0001 59.9999L40.0002 90L52.5 77.5L50.0002 75L40.0002 85L35.0001 80L40.0002 75L30.0001 64.9999L32.5002 62.4999L42.5002 72.5L45.0002 69.9999L32.5002 57.4999L25.0001 64.9999L35.0001 75L32.5002 77.5L20.0001 64.9999L30.0001 55.0001L22.5001 47.5001L20.0001 50.0001Z" fill="#22303A"/>
<path fill-rule="evenodd" clip-rule="evenodd" d="M25.0001 45.0001L27.5001 47.5002L30.0002 45.0001L27.5001 42.5001L25.0001 45.0001Z" fill="#22303A"/>
<path fill-rule="evenodd" clip-rule="evenodd" d="M30.0001 50.0001L32.5001 52.5001L35.0001 50.0001L32.5001 47.5001L30.0001 50.0001Z" fill="#22303A"/>
<path fill-rule="evenodd" clip-rule="evenodd" d="M30.0001 90L32.5001 92.5L35.0001 90L32.5001 87.5L30.0001 90Z" fill="#22303A"/>
<path fill-rule="evenodd" clip-rule="evenodd" d="M102.5 62.5L100 60L102.5 57.5L105 60L102.5 62.5ZM100 70L95.0001 65L97.5001 62.5L102.5 67.5L110 60L80.0001 30.0001L67.5 42.5002L70 45.0002L80.0001 35.0002L85.0001 40.0002L80.0001 45.0002L90.0001 55L87.5001 57.5L77.5 47.5002L75 50.0002L87.5001 62.5L95.0001 55L85.0001 45.0002L87.5001 42.5002L100 55L90.0001 65L97.5001 72.5L100 70Z" fill="#22303A"/>
<path fill-rule="evenodd" clip-rule="evenodd" d="M95.0001 75L92.5001 72.5L90.0001 75L92.5001 77.5L95.0001 75Z" fill="#22303A"/>
<path fill-rule="evenodd" clip-rule="evenodd" d="M90.0001 70L87.5001 67.5L85.0001 70L87.5001 72.5L90.0001 70Z" fill="#22303A"/>
<path fill-rule="evenodd" clip-rule="evenodd" d="M90.0001 30.0001L87.5001 27.5001L85.0001 30.0001L87.5001 32.5001L90.0001 30.0001Z" fill="#22303A"/>
<path fill-rule="evenodd" clip-rule="evenodd" d="M60 40.0001L40.0001 60L60.0002 80L80 60.0002L60 40.0001Z" fill="#D1B06B"/>
<path fill-rule="evenodd" clip-rule="evenodd" d="M0 60.0002L2.50002 62.5L5.00001 60.0002L2.50002 57.5002L0 60.0002Z" fill="#22303A"/>
<path fill-rule="evenodd" clip-rule="evenodd" d="M57.5 117.5L60 120L62.5 117.5L60 115L57.5 117.5Z" fill="#22303A" stroke="#D1B06B" stroke-width="0.288" stroke-miterlimit="22.9256"/>
<path fill-rule="evenodd" clip-rule="evenodd" d="M57.5 2.50002L60 0L62.5 2.50002L60 5.00002L57.5 2.50002Z" fill="#22303A"/>
<path fill-rule="evenodd" clip-rule="evenodd" d="M120 60L117.5 62.5L115 60L117.5 57.5L120 60Z" fill="#22303A"/>
<path fill-rule="evenodd" clip-rule="evenodd" d="M0 60.0002L25.0001 35.0001L27.5001 37.5001L2.50002 62.5002L0 60.0002Z" fill="#22303A"/>
<path fill-rule="evenodd" clip-rule="evenodd" d="M32.5002 27.5001L60 0L62.4998 2.50002L35.0002 30.0001L32.5002 27.5001Z" fill="#22303A"/>
<path fill-rule="evenodd" clip-rule="evenodd" d="M120 60L92.5001 32.5001L90.0001 35.0001L117.5 62.5L120 60Z" fill="#22303A"/>
<path fill-rule="evenodd" clip-rule="evenodd" d="M85.0001 25.0001L60 0L57.5 2.50002L82.5001 27.5001L85.0001 25.0001Z" fill="#22303A"/>
<path fill-rule="evenodd" clip-rule="evenodd" d="M62.4997 117.5L37.5001 92.5001L35.0001 95.0001L60 120L62.4997 117.5Z" fill="#22303A"/>
<path fill-rule="evenodd" clip-rule="evenodd" d="M30.0001 85.0001L2.50002 57.5002L0 60.0002L27.5001 87.5001L30.0001 85.0001Z" fill="#22303A"/>
<path fill-rule="evenodd" clip-rule="evenodd" d="M57.5 117.5L85.0001 90.0001L87.5001 92.5001L60 120L57.5 117.5Z" fill="#22303A"/>
<path fill-rule="evenodd" clip-rule="evenodd" d="M92.5001 82.5001L117.5 57.5L120 60L95.0001 85.0001L92.5001 82.5001Z" fill="#22303A"/>
</svg>
