<svg width="24" height="25" viewBox="0 0 24 25" fill="none" xmlns="http://www.w3.org/2000/svg">
<g id="Icons">
<path id="bg" d="M20.25 0.5H3.75C1.67893 0.5 0 2.17893 0 4.25V20.75C0 22.8211 1.67893 24.5 3.75 24.5H20.25C22.3211 24.5 24 22.8211 24 20.75V4.25C24 2.17893 22.3211 0.5 20.25 0.5Z" fill="white"/>
<g id="instagram">
<path d="M12 7.3999C13.65 7.3999 13.875 7.3999 14.55 7.3999C15.15 7.3999 15.45 7.5499 15.675 7.6249C15.975 7.7749 16.2 7.8499 16.425 8.0749C16.65 8.2999 16.8 8.5249 16.875 8.8249C16.95 9.0499 17.025 9.3499 17.1 9.9499C17.1 10.6249 17.1 10.7749 17.1 12.4999C17.1 14.2249 17.1 14.3749 17.1 15.0499C17.1 15.6499 16.95 15.9499 16.875 16.1749C16.725 16.4749 16.65 16.6999 16.425 16.9249C16.2 17.1499 15.975 17.2999 15.675 17.3749C15.45 17.4499 15.15 17.5249 14.55 17.5999C13.875 17.5999 13.725 17.5999 12 17.5999C10.275 17.5999 10.125 17.5999 9.45002 17.5999C8.85002 17.5999 8.55002 17.4499 8.32502 17.3749C8.02502 17.2249 7.80002 17.1499 7.57502 16.9249C7.35002 16.6999 7.20002 16.4749 7.12502 16.1749C7.05002 15.9499 6.97502 15.6499 6.90002 15.0499C6.90002 14.3749 6.90002 14.2249 6.90002 12.4999C6.90002 10.7749 6.90002 10.6249 6.90002 9.9499C6.90002 9.3499 7.05002 9.0499 7.12502 8.8249C7.27502 8.5249 7.35002 8.2999 7.57502 8.0749C7.80002 7.8499 8.02502 7.6999 8.32502 7.6249C8.55002 7.5499 8.85002 7.4749 9.45002 7.3999C10.125 7.3999 10.35 7.3999 12 7.3999ZM12 6.2749C10.275 6.2749 10.125 6.2749 9.45002 6.2749C8.77502 6.2749 8.32502 6.4249 7.95002 6.5749C7.57502 6.7249 7.20002 6.9499 6.82502 7.3249C6.45002 7.6999 6.30002 7.9999 6.07502 8.4499C5.92502 8.8249 5.85002 9.2749 5.77502 9.9499C5.77502 10.6249 5.77502 10.8499 5.77502 12.4999C5.77502 14.2249 5.77502 14.3749 5.77502 15.0499C5.77502 15.7249 5.92502 16.1749 6.07502 16.5499C6.22502 16.9249 6.45002 17.2999 6.82502 17.6749C7.20002 18.0499 7.50002 18.1999 7.95002 18.4249C8.32502 18.5749 8.77502 18.6499 9.45002 18.7249C10.125 18.7249 10.35 18.7249 12 18.7249C13.65 18.7249 13.875 18.7249 14.55 18.7249C15.225 18.7249 15.675 18.5749 16.05 18.4249C16.425 18.2749 16.8 18.0499 17.175 17.6749C17.55 17.2999 17.7 16.9999 17.925 16.5499C18.075 16.1749 18.15 15.7249 18.225 15.0499C18.225 14.3749 18.225 14.1499 18.225 12.4999C18.225 10.8499 18.225 10.6249 18.225 9.9499C18.225 9.2749 18.075 8.8249 17.925 8.4499C17.775 8.0749 17.55 7.6999 17.175 7.3249C16.8 6.9499 16.5 6.7999 16.05 6.5749C15.675 6.4249 15.225 6.3499 14.55 6.2749C13.875 6.2749 13.725 6.2749 12 6.2749Z" fill="#22303A"/>
<path d="M12 9.2749C10.2 9.2749 8.77502 10.6999 8.77502 12.4999C8.77502 14.2999 10.2 15.7249 12 15.7249C13.8 15.7249 15.225 14.2999 15.225 12.4999C15.225 10.6999 13.8 9.2749 12 9.2749ZM12 14.5999C10.875 14.5999 9.90002 13.6999 9.90002 12.4999C9.90002 11.3749 10.8 10.3999 12 10.3999C13.125 10.3999 14.1 11.2999 14.1 12.4999C14.1 13.6249 13.125 14.5999 12 14.5999Z" fill="#22303A"/>
<path d="M15.3 9.9499C15.7142 9.9499 16.05 9.61412 16.05 9.1999C16.05 8.78569 15.7142 8.4499 15.3 8.4499C14.8858 8.4499 14.55 8.78569 14.55 9.1999C14.55 9.61412 14.8858 9.9499 15.3 9.9499Z" fill="#22303A"/>
</g>
</g>
</svg>
