<svg width="178" height="260" viewBox="0 0 178 260" fill="none" xmlns="http://www.w3.org/2000/svg">
<path d="M169.43 233.986L167.016 227.885H154.989L152.706 233.986H144.542L157.579 202.91H164.865L177.77 233.986H169.43ZM161.09 211.206L157.139 221.872H164.953L161.09 211.206Z" fill="#27698D"/>
<path d="M127.38 233.986L115.836 219.677H115.748V233.986H108.374V202.91H115.748V215.551H115.88L126.985 202.91H136.378L122.99 217.219L137.168 233.986H127.38Z" fill="#27698D"/>
<path d="M91.2113 233.986L79.6671 219.677H79.5795V233.986H72.2052V202.91H79.5795V215.551H79.711L90.8164 202.91H100.21L86.8218 217.219L101 233.986H91.2113Z" fill="#27698D"/>
<path d="M56.4915 233.986L54.0771 227.885H42.0503L39.7678 233.986H31.6037L44.64 202.91H51.9266L64.8314 233.986H56.4915ZM48.1516 211.206L44.2012 221.872H52.0143L48.1516 211.206Z" fill="#27698D"/>
<path d="M24.2294 224.945C24.2294 226.642 23.893 228.068 23.2199 229.224C22.5472 230.38 21.6544 231.309 20.5425 232.011C19.4306 232.714 18.1648 233.218 16.7456 233.526C15.3264 233.833 13.8705 233.986 12.3783 233.986H0.000396729V202.91H12.3783C13.578 202.91 14.8071 203.034 16.0653 203.283C17.3235 203.532 18.4649 203.956 19.4891 204.556C20.5134 205.156 21.3472 205.968 21.9908 206.992C22.6349 208.016 22.9565 209.318 22.9565 210.898C22.9565 212.625 22.4886 214.052 21.552 215.178C20.6158 216.305 19.3867 217.117 17.8651 217.614V217.702C18.7427 217.848 19.5697 218.119 20.3448 218.514C21.1204 218.909 21.7935 219.414 22.3642 220.028C22.9346 220.643 23.3881 221.36 23.7249 222.179C24.0612 222.999 24.2294 223.92 24.2294 224.945ZM16.7237 224.242C16.7237 222.955 16.241 222.062 15.2754 221.565C14.3097 221.067 13.022 220.819 11.4127 220.819H7.24273V227.929H11.4565C12.0416 227.929 12.6489 227.878 13.2782 227.776C13.9072 227.673 14.4779 227.49 14.99 227.227C15.5021 226.964 15.919 226.591 16.241 226.108C16.5627 225.625 16.7237 225.003 16.7237 224.242ZM15.7142 211.908C15.7142 210.855 15.312 210.087 14.507 209.604C13.7023 209.121 12.5099 208.879 10.9297 208.879H7.24273V215.288H11.2808C12.6856 215.288 13.7757 215.003 14.5508 214.432C15.3264 213.861 15.7142 213.02 15.7142 211.908Z" fill="#27698D"/>
<path d="M6.57412 249.169V259.127H3.54407V249.169H0.000396729V246.582H10.1178V249.169H6.57412ZM40.4943 259.127L37.7832 254.148H36.7556V259.127H33.7788V246.582H38.5629C39.1654 246.582 39.7531 246.644 40.3257 246.768C40.8987 246.892 41.4127 247.102 41.8674 247.397C42.3221 247.692 42.6856 248.082 42.957 248.566C43.2287 249.051 43.3648 249.653 43.3648 250.374C43.3648 251.224 43.1342 251.939 42.6735 252.518C42.2128 253.096 41.5752 253.51 40.7599 253.758L44.0379 259.127H40.4943ZM40.3703 250.427C40.3703 250.131 40.3083 249.893 40.184 249.709C40.06 249.526 39.9005 249.385 39.7058 249.284C39.5108 249.183 39.2924 249.116 39.0501 249.08C38.8078 249.045 38.5746 249.027 38.3501 249.027H36.7378V251.951H38.1729C38.4212 251.951 38.6752 251.93 38.9348 251.889C39.1948 251.847 39.4311 251.774 39.6439 251.667C39.8563 251.561 40.0305 251.407 40.1666 251.207C40.3023 251.006 40.3703 250.746 40.3703 250.427ZM76.3102 259.127L75.3358 256.664H70.4807L69.5592 259.127H66.2638L71.5261 246.582H74.4677L79.677 259.127H76.3102ZM72.9438 249.931L71.3488 254.236H74.5028L72.9438 249.931ZM108.689 259.127H105.659L100.91 246.582H104.312L107.218 255.477H107.289L110.177 246.582H113.526L108.689 259.127ZM136.833 259.127V246.582H145.267V249.151H139.756V251.508H144.966V253.935H139.756V256.54H145.586V259.127H136.833ZM169.867 259.127V246.582H172.915V256.487H177.77V259.127H169.867Z" fill="#D8AE5F"/>
<path fill-rule="evenodd" clip-rule="evenodd" d="M85.1815 151.846L88.8851 148.142L92.5886 151.846L88.8851 155.549L85.1815 151.846ZM74.0712 148.142L81.4779 140.735L85.1815 144.438L77.7744 151.846L88.8851 162.956L133.328 118.514L114.81 99.9957L111.106 103.699L125.921 118.514L118.514 125.921L111.106 118.514L96.2922 133.328L92.5886 129.624L107.403 114.81L103.699 111.106L85.1815 129.624L96.2922 140.735L111.106 125.921L114.81 129.624L96.2922 148.142L81.4779 133.328L70.3676 144.438L74.0712 148.142Z" fill="#27698D"/>
<path fill-rule="evenodd" clip-rule="evenodd" d="M66.6641 140.735L70.3676 137.031L66.6641 133.328L62.9605 137.031L66.6641 140.735Z" fill="#27698D"/>
<path fill-rule="evenodd" clip-rule="evenodd" d="M74.0712 133.328L77.7744 129.624L74.0708 125.921L70.3673 129.624L74.0712 133.328Z" fill="#27698D"/>
<path fill-rule="evenodd" clip-rule="evenodd" d="M133.328 133.328L137.031 129.624L133.328 125.921L129.624 129.624L133.328 133.328Z" fill="#27698D"/>
<path fill-rule="evenodd" clip-rule="evenodd" d="M92.5886 25.9249L88.8851 29.6285L85.1815 25.9249L88.8851 22.2214L92.5886 25.9249ZM103.699 29.6285L96.2922 37.0356L92.5886 33.332L99.9957 25.9249L88.8851 14.8142L44.4427 59.2569L62.9605 77.7747L66.6641 74.0712L51.8498 59.2569L59.257 51.8498L66.6641 59.2569L81.4779 44.4427L85.1815 48.1463L70.3673 62.9605L74.0708 66.6641L92.5886 48.1463L81.4779 37.0356L66.6641 51.8498L62.9605 48.1463L81.4779 29.6285L96.2922 44.4427L107.403 33.332L103.699 29.6285Z" fill="#27698D"/>
<path fill-rule="evenodd" clip-rule="evenodd" d="M111.106 37.0356L107.403 40.7392L111.106 44.4427L114.81 40.7392L111.106 37.0356Z" fill="#27698D"/>
<path fill-rule="evenodd" clip-rule="evenodd" d="M103.699 44.4427L99.9957 48.1463L103.699 51.8499L107.403 48.1463L103.699 44.4427Z" fill="#27698D"/>
<path fill-rule="evenodd" clip-rule="evenodd" d="M44.4427 44.4427L40.7391 48.1463L44.4427 51.8499L48.1463 48.1463L44.4427 44.4427Z" fill="#27698D"/>
<path fill-rule="evenodd" clip-rule="evenodd" d="M25.9249 85.1815L29.6285 88.885L25.9249 92.5886L22.2213 88.885L25.9249 85.1815ZM29.6285 74.0712L37.0356 81.4783L33.332 85.1815L25.9249 77.7747L14.8142 88.885L59.2569 133.328L77.7743 114.81L74.0712 111.106L59.2569 125.921L51.8498 118.514L59.2569 111.106L44.4427 96.2922L48.1463 92.5886L62.9605 107.403L66.664 103.699L48.1463 85.1815L37.0356 96.2922L51.8498 111.106L48.1463 114.81L29.6285 96.2922L44.4427 81.4783L33.332 70.3676L29.6285 74.0712Z" fill="#27698D"/>
<path fill-rule="evenodd" clip-rule="evenodd" d="M37.0356 66.6641L40.7392 70.3676L44.4427 66.6641L40.7392 62.9605L37.0356 66.6641Z" fill="#27698D"/>
<path fill-rule="evenodd" clip-rule="evenodd" d="M44.4427 74.0712L48.1463 77.7747L51.8498 74.0712L48.1463 70.3676L44.4427 74.0712Z" fill="#27698D"/>
<path fill-rule="evenodd" clip-rule="evenodd" d="M44.4427 133.328L48.1463 137.031L51.8498 133.328L48.1463 129.624L44.4427 133.328Z" fill="#27698D"/>
<path fill-rule="evenodd" clip-rule="evenodd" d="M151.846 92.5886L148.142 88.8851L151.846 85.1815L155.549 88.8851L151.846 92.5886ZM148.142 103.699L140.735 96.2922L144.438 92.5886L151.846 99.9957L162.956 88.8851L118.514 44.4427L99.9957 62.9605L103.699 66.6641L118.514 51.8499L125.921 59.257L118.514 66.6641L133.328 81.478L129.624 85.1815L114.81 70.3677L111.106 74.0712L129.624 92.5886L140.735 81.478L125.921 66.6641L129.624 62.9605L148.142 81.478L133.328 96.2922L144.438 107.403L148.142 103.699Z" fill="#27698D"/>
<path fill-rule="evenodd" clip-rule="evenodd" d="M140.735 111.106L137.031 107.403L133.328 111.106L137.031 114.81L140.735 111.106Z" fill="#27698D"/>
<path fill-rule="evenodd" clip-rule="evenodd" d="M133.328 103.699L129.624 99.9957L125.921 103.699L129.624 107.403L133.328 103.699Z" fill="#27698D"/>
<path fill-rule="evenodd" clip-rule="evenodd" d="M133.328 44.4427L129.624 40.7392L125.921 44.4427L129.624 48.1463L133.328 44.4427Z" fill="#27698D"/>
<path fill-rule="evenodd" clip-rule="evenodd" d="M88.885 59.2569L59.2569 88.885L88.8854 118.513L118.513 88.8854L88.885 59.2569Z" fill="#D8AE5F"/>
<path fill-rule="evenodd" clip-rule="evenodd" d="M0 88.8854L3.70357 92.5886L7.4071 88.8854L3.70357 85.1819L0 88.8854Z" fill="#27698D"/>
<path fill-rule="evenodd" clip-rule="evenodd" d="M85.1815 174.067L88.8851 177.77L92.5886 174.067L88.8851 170.363L85.1815 174.067Z" fill="#27698D" stroke="#D8AE5F" stroke-width="0.288" stroke-miterlimit="22.9256"/>
<path fill-rule="evenodd" clip-rule="evenodd" d="M85.1815 3.70357L88.8851 0L92.5886 3.70357L88.8851 7.40712L85.1815 3.70357Z" fill="#27698D"/>
<path fill-rule="evenodd" clip-rule="evenodd" d="M177.77 88.885L174.067 92.5886L170.363 88.885L174.067 85.1815L177.77 88.885Z" fill="#27698D"/>
<path fill-rule="evenodd" clip-rule="evenodd" d="M0 88.8854L37.0356 51.8499L40.7391 55.5534L3.70357 92.589L0 88.8854Z" fill="#27698D"/>
<path fill-rule="evenodd" clip-rule="evenodd" d="M48.1463 40.7392L88.8851 0L92.5882 3.70357L51.8498 44.4427L48.1463 40.7392Z" fill="#27698D"/>
<path fill-rule="evenodd" clip-rule="evenodd" d="M177.77 88.885L137.031 48.1463L133.328 51.8498L174.066 92.5886L177.77 88.885Z" fill="#27698D"/>
<path fill-rule="evenodd" clip-rule="evenodd" d="M125.921 37.0356L88.8851 0L85.1815 3.70357L122.217 40.7392L125.921 37.0356Z" fill="#27698D"/>
<path fill-rule="evenodd" clip-rule="evenodd" d="M92.5882 174.067L55.5534 137.031L51.8498 140.735L88.8851 177.77L92.5882 174.067Z" fill="#27698D"/>
<path fill-rule="evenodd" clip-rule="evenodd" d="M44.4427 125.921L3.70357 85.1819L0 88.8854L40.7391 129.624L44.4427 125.921Z" fill="#27698D"/>
<path fill-rule="evenodd" clip-rule="evenodd" d="M85.1815 174.067L125.921 133.328L129.624 137.031L88.8851 177.77L85.1815 174.067Z" fill="#27698D"/>
<path fill-rule="evenodd" clip-rule="evenodd" d="M137.031 122.217L174.067 85.1815L177.77 88.885L140.735 125.921L137.031 122.217Z" fill="#27698D"/>
</svg>
