<?xml version="1.0" encoding="UTF-8"?>
<!DOCTYPE svg PUBLIC "-//W3C//DTD SVG 1.1//EN" "http://www.w3.org/Graphics/SVG/1.1/DTD/svg11.dtd">
<!-- Creator: CorelDRAW -->
<svg xmlns="http://www.w3.org/2000/svg" xml:space="preserve" width="297mm" height="210mm" version="1.1" style="shape-rendering:geometricPrecision; text-rendering:geometricPrecision; image-rendering:optimizeQuality; fill-rule:evenodd; clip-rule:evenodd"
viewBox="0 0 29700 21000"
 xmlns:xlink="http://www.w3.org/1999/xlink"
 xmlns:xodm="http://www.corel.com/coreldraw/odm/2003">
 <defs>
  <style type="text/css">
   <![CDATA[
    .str0 {stroke:#D8AE5F;stroke-width:7.62;stroke-miterlimit:22.9256}
    .fil2 {fill:#27698D}
    .fil3 {fill:#D8AE5F}
    .fil0 {fill:#27698D;fill-rule:nonzero}
    .fil1 {fill:#D8AE5F;fill-rule:nonzero}
   ]]>
  </style>
 </defs>
 <g id="Слой_x0020_1">
  <metadata id="CorelCorpID_0Corel-Layer"/>
  <g id="_105553155102528">
   <path class="fil0" d="M8945.48 10571.91l-52.7 -133.17 -262.49 0 -49.82 133.17 -178.19 0 284.53 -678.28 159.03 0 281.66 678.28 -182.02 0zm-182.03 -497.22l-86.22 232.8 170.53 0 -84.31 -232.8z"/>
   <polygon class="fil0" points="8027.69,10571.91 7775.73,10259.59 7773.81,10259.59 7773.81,10571.91 7612.87,10571.91 7612.87,9893.63 7773.81,9893.63 7773.81,10169.54 7776.69,10169.54 8019.07,9893.63 8224.08,9893.63 7931.89,10205.94 8241.33,10571.91 "/>
   <polygon class="fil0" points="7238.28,10571.91 6986.32,10259.59 6984.4,10259.59 6984.4,10571.91 6823.45,10571.91 6823.45,9893.63 6984.4,9893.63 6984.4,10169.54 6987.28,10169.54 7229.66,9893.63 7434.67,9893.63 7142.47,10205.94 7451.92,10571.91 "/>
   <path class="fil0" d="M6480.48 10571.91l-52.69 -133.17 -262.5 0 -49.82 133.17 -178.19 0 284.53 -678.28 159.04 0 281.65 678.28 -182.02 0zm-182.02 -497.22l-86.23 232.8 170.53 0 -84.3 -232.8z"/>
   <path class="fil0" d="M5776.33 10374.56c0,37.04 -7.34,68.17 -22.03,93.4 -14.69,25.23 -34.17,45.51 -58.44,60.84 -24.27,15.32 -51.89,26.34 -82.87,33.05 -30.97,6.7 -62.75,10.06 -95.32,10.06l-270.17 0 0 -678.28 270.17 0c26.18,0 53.01,2.71 80.47,8.14 27.46,5.43 52.37,14.69 74.73,27.78 22.35,13.1 40.55,30.82 54.6,53.17 14.06,22.36 21.08,50.78 21.08,85.27 0,37.68 -10.22,68.81 -30.66,93.4 -20.43,24.59 -47.26,42.32 -80.47,53.17l0 1.92c19.16,3.19 37.2,9.1 54.13,17.72 16.92,8.63 31.61,19.64 44.07,33.06 12.45,13.41 22.35,29.06 29.7,46.94 7.34,17.88 11.01,38 11.01,60.36zm-163.82 -15.33c0,-28.11 -10.54,-47.59 -31.61,-58.44 -21.08,-10.86 -49.18,-16.29 -84.31,-16.29l-91.01 0 0 155.2 91.97 0c12.77,0 26.02,-1.12 39.76,-3.35 13.73,-2.24 26.18,-6.23 37.36,-11.98 11.18,-5.75 20.28,-13.89 27.3,-24.43 7.03,-10.54 10.54,-24.11 10.54,-40.71zm-22.03 -269.21c0,-22.99 -8.79,-39.76 -26.35,-50.3 -17.56,-10.53 -43.59,-15.8 -78.08,-15.8l-80.47 0 0 139.87 88.14 0c30.65,0 54.44,-6.23 71.37,-18.68 16.93,-12.46 25.39,-30.82 25.39,-55.09z"/>
   <path class="fil1" d="M5390.98 10903.28l0 217.34 -66.13 0 0 -217.34 -77.35 0 0 -56.47 220.83 0 0 56.47 -77.35 0zm740.34 217.34l-59.17 -108.67 -22.43 0 0 108.67 -64.97 0 0 -273.81 104.42 0c13.15,0 25.98,1.36 38.48,4.06 12.51,2.71 23.72,7.29 33.65,13.73 9.92,6.45 17.85,14.96 23.78,25.53 5.93,10.57 8.9,23.72 8.9,39.44 0,18.57 -5.03,34.17 -15.09,46.8 -10.05,12.63 -23.97,21.66 -41.76,27.07l71.54 117.18 -77.35 0zm-2.7 -189.89c0,-6.44 -1.35,-11.66 -4.06,-15.66 -2.71,-4 -6.19,-7.09 -10.44,-9.28 -4.26,-2.19 -9.03,-3.67 -14.31,-4.45 -5.29,-0.77 -10.38,-1.16 -15.28,-1.16l-35.19 0 0 63.81 31.32 0c5.42,0 10.96,-0.45 16.63,-1.35 5.68,-0.9 10.83,-2.51 15.47,-4.83 4.64,-2.32 8.45,-5.68 11.41,-10.06 2.97,-4.38 4.45,-10.05 4.45,-17.02zm784.43 189.89l-21.27 -53.76 -105.97 0 -20.11 53.76 -71.93 0 114.86 -273.81 64.2 0 113.7 273.81 -73.48 0zm-73.48 -200.71l-34.81 93.97 68.84 0 -34.03 -93.97zm780.18 200.71l-66.14 0 -103.64 -273.81 74.25 0 63.43 194.14 1.54 0 63.04 -194.14 73.09 0 -105.57 273.81zm614.26 0l0 -273.81 184.09 0 0 56.08 -120.28 0 0 51.44 113.7 0 0 52.98 -113.7 0 0 56.85 127.24 0 0 56.46 -191.05 0zm721.01 0l0 -273.81 66.51 0 0 216.19 105.97 0 0 57.62 -172.48 0z"/>
   <g>
    <g>
     <path class="fil2" d="M2677.96 11881.3l80.83 -80.83 80.84 80.83 -80.84 80.84 -80.83 -80.84zm-242.5 -80.83l161.67 -161.67 80.83 80.84 -161.67 161.66 242.5 242.5 970.01 -970 -404.17 -404.17 -80.83 80.84 323.33 323.33 -161.67 161.67 -161.66 -161.67 -323.34 323.34 -80.83 -80.84 323.33 -323.33 -80.83 -80.84 -404.17 404.17 242.5 242.5 323.34 -323.33 80.83 80.83 -404.17 404.17 -323.33 -323.33 -242.5 242.5 80.83 80.83z"/>
     <polygon class="fil2" points="2273.79,11638.8 2354.63,11557.97 2273.79,11477.14 2192.96,11557.97 "/>
     <polygon class="fil2" points="2435.46,11477.14 2516.29,11396.3 2435.46,11315.47 2354.63,11396.3 "/>
     <polygon class="fil2" points="3728.8,11477.14 3809.63,11396.3 3728.8,11315.47 3647.96,11396.3 "/>
    </g>
    <g>
     <path class="fil2" d="M2839.63 9132.96l-80.84 80.84 -80.83 -80.84 80.83 -80.83 80.84 80.83zm242.5 80.84l-161.67 161.66 -80.83 -80.83 161.66 -161.67 -242.5 -242.5 -970 970.01 404.17 404.16 80.83 -80.83 -323.33 -323.33 161.66 -161.67 161.67 161.67 323.34 -323.34 80.83 80.83 -323.33 323.34 80.83 80.83 404.17 -404.17 -242.5 -242.5 -323.34 323.34 -80.83 -80.84 404.17 -404.16 323.33 323.33 242.5 -242.5 -80.83 -80.83z"/>
     <polygon class="fil2" points="3243.79,9375.46 3162.96,9456.3 3243.8,9537.13 3324.63,9456.3 "/>
     <polygon class="fil2" points="3082.13,9537.13 3001.29,9617.96 3082.13,9698.8 3162.96,9617.97 "/>
     <polygon class="fil2" points="1788.79,9537.13 1707.96,9617.96 1788.79,9698.8 1869.62,9617.96 "/>
    </g>
    <g>
     <path class="fil2" d="M1384.62 10426.3l80.84 80.83 -80.84 80.84 -80.83 -80.84 80.83 -80.83zm80.84 -242.5l161.66 161.67 -80.83 80.83 -161.67 -161.67 -242.5 242.5 970.01 970.01 404.16 -404.17 -80.83 -80.83 -323.33 323.33 -161.67 -161.67 161.67 -161.66 -323.34 -323.34 80.83 -80.83 323.34 323.33 80.83 -80.83 -404.17 -404.17 -242.5 242.5 323.34 323.34 -80.84 80.83 -404.16 -404.17 323.33 -323.33 -242.5 -242.5 -80.83 80.83z"/>
     <polygon class="fil2" points="1627.12,10022.13 1707.96,10102.97 1788.79,10022.13 1707.96,9941.3 "/>
     <polygon class="fil2" points="1788.79,10183.8 1869.62,10264.63 1950.46,10183.8 1869.63,10102.97 "/>
     <polygon class="fil2" points="1788.79,11477.14 1869.62,11557.97 1950.46,11477.14 1869.62,11396.3 "/>
    </g>
    <g>
     <path class="fil2" d="M4132.96 10587.97l-80.83 -80.84 80.83 -80.83 80.84 80.83 -80.84 80.84zm-80.83 242.5l-161.67 -161.67 80.84 -80.83 161.66 161.66 242.5 -242.5 -970 -970 -404.17 404.17 80.84 80.83 323.33 -323.33 161.67 161.66 -161.67 161.67 323.34 323.34 -80.84 80.83 -323.33 -323.33 -80.84 80.83 404.17 404.17 242.5 -242.5 -323.33 -323.34 80.83 -80.83 404.17 404.17 -323.33 323.33 242.5 242.5 80.83 -80.83z"/>
     <polygon class="fil2" points="3890.46,10992.13 3809.63,10911.3 3728.8,10992.14 3809.63,11072.97 "/>
     <polygon class="fil2" points="3728.8,10830.47 3647.96,10749.63 3567.13,10830.47 3647.96,10911.3 "/>
     <polygon class="fil2" points="3728.8,9537.13 3647.96,9456.3 3567.13,9537.13 3647.96,9617.96 "/>
    </g>
    <polygon class="fil3" points="2758.79,9860.47 2112.13,10507.13 2758.8,11153.8 3405.46,10507.14 "/>
    <polygon class="fil2" points="818.79,10507.13 899.62,10587.97 980.46,10507.13 899.62,10426.3 "/>
    <polygon class="fil2 str0" points="2677.96,12366.3 2758.79,12447.14 2839.63,12366.3 2758.79,12285.47 "/>
    <polygon class="fil2" points="2677.96,8647.96 2758.79,8567.13 2839.63,8647.96 2758.79,8728.8 "/>
    <polygon class="fil2" points="4698.8,10507.13 4617.97,10587.97 4537.13,10507.13 4617.97,10426.3 "/>
    <polygon class="fil2" points="818.79,10507.14 1627.12,9698.8 1707.96,9779.63 899.62,10587.97 "/>
    <polygon class="fil2" points="1869.62,9456.3 2758.79,8567.13 2839.62,8647.96 1950.46,9537.13 "/>
    <polygon class="fil2" points="4698.8,10507.13 3809.63,9617.96 3728.8,9698.8 4617.96,10587.96 "/>
    <polygon class="fil2" points="3567.13,9375.47 2758.79,8567.13 2677.96,8647.96 3486.3,9456.3 "/>
    <polygon class="fil2" points="2839.62,12366.31 2031.29,11557.97 1950.46,11638.81 2758.79,12447.14 "/>
    <polygon class="fil2" points="1788.79,11315.47 899.62,10426.3 818.79,10507.14 1707.96,11396.3 "/>
    <polygon class="fil2" points="2677.96,12366.31 3567.13,11477.14 3647.96,11557.97 2758.79,12447.14 "/>
    <polygon class="fil2" points="3809.63,11234.63 4617.96,10426.3 4698.8,10507.13 3890.47,11315.47 "/>
   </g>
  </g>
 </g>
</svg>
