<?xml version="1.0" encoding="UTF-8"?>
<!DOCTYPE svg PUBLIC "-//W3C//DTD SVG 1.1//EN" "http://www.w3.org/Graphics/SVG/1.1/DTD/svg11.dtd">
<!-- Creator: CorelDRAW -->
<svg xmlns="http://www.w3.org/2000/svg" xml:space="preserve" width="297mm" height="210mm" version="1.1" style="shape-rendering:geometricPrecision; text-rendering:geometricPrecision; image-rendering:optimizeQuality; fill-rule:evenodd; clip-rule:evenodd"
viewBox="0 0 29700 21000"
 xmlns:xlink="http://www.w3.org/1999/xlink"
 xmlns:xodm="http://www.corel.com/coreldraw/odm/2003">
 <defs>
  <style type="text/css">
   <![CDATA[
    .str0 {stroke:#D8AE5F;stroke-width:7.62;stroke-miterlimit:22.9256}
    .fil2 {fill:#27698D}
    .fil3 {fill:#D8AE5F}
    .fil0 {fill:#27698D;fill-rule:nonzero}
    .fil1 {fill:#D8AE5F;fill-rule:nonzero}
   ]]>
  </style>
 </defs>
 <g id="Слой_x0020_1">
  <metadata id="CorelCorpID_0Corel-Layer"/>
  <g id="_105553155401568">
   <g>
    <path class="fil0" d="M16504.82 13269.98l-63.87 -161.42 -318.21 0 -60.39 161.42 -216.02 0 344.93 -822.23 192.78 0 341.44 822.23 -220.66 0zm-220.65 -602.74l-104.53 282.21 206.72 0 -102.19 -282.21z"/>
    <polygon class="fil0" points="15392.24,13269.98 15086.81,12891.38 15084.49,12891.38 15084.49,13269.98 14889.38,13269.98 14889.38,12447.75 15084.49,12447.75 15084.49,12782.22 15087.97,12782.22 15381.79,12447.75 15630.32,12447.75 15276.11,12826.35 15651.23,13269.98 "/>
    <polygon class="fil0" points="14435.29,13269.98 14129.85,12891.38 14127.53,12891.38 14127.53,13269.98 13932.42,13269.98 13932.42,12447.75 14127.53,12447.75 14127.53,12782.22 14131.01,12782.22 14424.84,12447.75 14673.37,12447.75 14319.15,12826.35 14694.27,13269.98 "/>
    <path class="fil0" d="M13516.66 13269.98l-63.88 -161.42 -318.21 0 -60.39 161.42 -216.01 0 344.92 -822.23 192.79 0 341.44 822.23 -220.66 0zm-220.66 -602.74l-104.52 282.21 206.72 0 -102.2 -282.21z"/>
    <path class="fil0" d="M12663.06 13030.75c0,44.9 -8.9,82.65 -26.71,113.23 -17.8,30.58 -41.42,55.16 -70.84,73.74 -29.42,18.59 -62.91,31.94 -100.46,40.07 -37.55,8.13 -76.07,12.19 -115.55,12.19l-327.5 0 0 -822.23 327.5 0c31.74,0 64.26,3.29 97.55,9.87 33.29,6.58 63.49,17.8 90.59,33.68 27.1,15.87 49.16,37.35 66.19,64.45 17.04,27.1 25.55,61.55 25.55,103.36 0,45.68 -12.38,83.43 -37.16,113.23 -24.77,29.81 -57.29,51.3 -97.55,64.46l0 2.32c23.22,3.87 45.1,11.03 65.61,21.49 20.52,10.45 38.33,23.81 53.43,40.06 15.09,16.26 27.09,35.23 36,56.91 8.9,21.68 13.35,46.07 13.35,73.17zm-198.59 -18.59c0,-34.06 -12.77,-57.68 -38.32,-70.84 -25.55,-13.16 -59.62,-19.74 -102.2,-19.74l-110.33 0 0 188.14 111.49 0c15.48,0 31.55,-1.36 48.2,-4.07 16.64,-2.71 31.74,-7.55 45.29,-14.51 13.55,-6.97 24.58,-16.84 33.1,-29.62 8.51,-12.77 12.77,-29.23 12.77,-49.36zm-26.71 -326.34c0,-27.87 -10.64,-48.19 -31.94,-60.97 -21.29,-12.77 -52.84,-19.16 -94.65,-19.16l-97.55 0 0 169.56 106.84 0c37.17,0 66.01,-7.55 86.52,-22.65 20.52,-15.1 30.78,-37.36 30.78,-66.78z"/>
   </g>
   <path class="fil1" d="M12195.93 13671.68l0 263.48 -80.17 0 0 -263.48 -93.76 0 0 -68.44 267.69 0 0 68.44 -93.76 0zm897.47 263.48l-71.73 -131.74 -27.19 0 0 131.74 -78.76 0 0 -331.92 126.58 0c15.94,0 31.49,1.64 46.64,4.92 15.16,3.28 28.76,8.83 40.79,16.64 12.03,7.82 21.65,18.13 28.83,30.94 7.19,12.82 10.79,28.76 10.79,47.82 0,22.51 -6.1,41.41 -18.29,56.73 -12.19,15.31 -29.06,26.25 -50.63,32.82l86.73 142.05 -93.76 0zm-3.28 -230.19c0,-7.82 -1.64,-14.14 -4.93,-18.99 -3.28,-4.84 -7.5,-8.59 -12.65,-11.25 -5.16,-2.66 -10.94,-4.45 -17.35,-5.39 -6.41,-0.94 -12.58,-1.41 -18.52,-1.41l-42.66 0 0 77.36 37.97 0c6.57,0 13.29,-0.55 20.16,-1.64 6.88,-1.1 13.13,-3.05 18.76,-5.87 5.62,-2.81 10.23,-6.87 13.83,-12.18 3.59,-5.32 5.39,-12.19 5.39,-20.63zm950.91 230.19l-25.78 -65.17 -128.46 0 -24.38 65.17 -87.19 0 139.23 -331.92 77.83 0 137.83 331.92 -89.08 0zm-89.07 -243.32l-42.2 113.92 83.45 0 -41.25 -113.92zm945.76 243.32l-80.17 0 -125.64 -331.92 90.01 0 76.89 235.34 1.87 0 76.42 -235.34 88.6 0 -127.98 331.92zm744.64 0l0 -331.92 223.15 0 0 67.97 -145.8 0 0 62.36 137.83 0 0 64.22 -137.83 0 0 68.92 154.24 0 0 68.45 -231.59 0zm874.03 0l0 -331.92 80.63 0 0 262.06 128.46 0 0 69.86 -209.09 0z"/>
   <g>
    <g>
     <path class="fil2" d="M14275.75 11096.67l97.99 -97.99 97.99 97.99 -97.99 97.99 -97.99 -97.99zm-293.96 -97.99l195.97 -195.98 97.99 97.99 -195.98 195.98 293.97 293.97 1175.88 -1175.88 -489.95 -489.95 -97.99 97.99 391.96 391.96 -195.98 195.98 -195.98 -195.98 -391.96 391.96 -97.99 -97.99 391.96 -391.96 -97.99 -97.99 -489.95 489.95 293.97 293.97 391.96 -391.96 97.99 97.99 -489.95 489.95 -391.96 -391.96 -293.96 293.97 97.99 97.99z"/>
     <polygon class="fil2" points="13785.81,10802.7 13883.8,10704.71 13785.81,10606.72 13687.82,10704.71 "/>
     <polygon class="fil2" points="13981.79,10606.72 14079.77,10508.73 13981.78,10410.74 13883.79,10508.73 "/>
     <polygon class="fil2" points="15549.62,10606.72 15647.61,10508.73 15549.62,10410.74 15451.63,10508.73 "/>
    </g>
    <g>
     <path class="fil2" d="M14471.73 7765.02l-97.99 97.99 -97.99 -97.99 97.99 -97.99 97.99 97.99zm293.97 97.99l-195.98 195.98 -97.99 -97.99 195.98 -195.98 -293.97 -293.97 -1175.87 1175.88 489.95 489.95 97.99 -97.99 -391.96 -391.96 195.98 -195.98 195.98 195.98 391.95 -391.96 97.99 97.99 -391.96 391.96 97.99 97.99 489.95 -489.95 -293.97 -293.97 -391.95 391.96 -97.99 -97.99 489.94 -489.95 391.96 391.96 293.97 -293.97 -97.99 -97.99z"/>
     <polygon class="fil2" points="14961.68,8058.99 14863.69,8156.98 14961.68,8254.97 15059.67,8156.98 "/>
     <polygon class="fil2" points="14765.7,8254.97 14667.71,8352.96 14765.7,8450.95 14863.69,8352.96 "/>
     <polygon class="fil2" points="13197.87,8254.97 13099.88,8352.96 13197.87,8450.95 13295.86,8352.96 "/>
    </g>
    <g>
     <path class="fil2" d="M12707.92 9332.85l97.99 97.99 -97.99 97.99 -97.99 -97.99 97.99 -97.99zm97.99 -293.96l195.98 195.98 -97.99 97.98 -195.98 -195.97 -293.97 293.96 1175.88 1175.88 489.94 -489.95 -97.98 -97.99 -391.96 391.96 -195.98 -195.98 195.98 -195.98 -391.96 -391.96 97.99 -97.99 391.96 391.96 97.99 -97.99 -489.95 -489.95 -293.97 293.97 391.96 391.96 -97.99 97.99 -489.95 -489.95 391.96 -391.95 -293.97 -293.97 -97.99 97.99z"/>
     <polygon class="fil2" points="13001.89,8842.91 13099.88,8940.9 13197.87,8842.91 13099.88,8744.92 "/>
     <polygon class="fil2" points="13197.87,9038.89 13295.86,9136.88 13393.85,9038.89 13295.86,8940.9 "/>
     <polygon class="fil2" points="13197.87,10606.72 13295.86,10704.71 13393.85,10606.72 13295.86,10508.73 "/>
    </g>
    <g>
     <path class="fil2" d="M16039.57 9528.83l-97.99 -97.99 97.99 -97.99 97.99 97.99 -97.99 97.99zm-97.99 293.97l-195.98 -195.98 97.99 -97.99 195.98 195.98 293.96 -293.97 -1175.87 -1175.87 -489.95 489.95 97.99 97.99 391.96 -391.96 195.98 195.98 -195.98 195.98 391.96 391.95 -97.99 97.99 -391.96 -391.95 -97.99 97.99 489.95 489.94 293.97 -293.97 -391.96 -391.95 97.99 -97.99 489.95 489.94 -391.96 391.96 293.97 293.97 97.99 -97.99z"/>
     <polygon class="fil2" points="15745.6,10018.78 15647.61,9920.79 15549.62,10018.78 15647.61,10116.77 "/>
     <polygon class="fil2" points="15549.62,9822.8 15451.63,9724.81 15353.64,9822.8 15451.63,9920.79 "/>
     <polygon class="fil2" points="15549.62,8254.97 15451.63,8156.98 15353.64,8254.97 15451.63,8352.96 "/>
    </g>
    <polygon class="fil3" points="14373.74,8646.93 13589.83,9430.84 14373.75,10214.76 15157.66,9430.85 "/>
    <polygon class="fil2" points="12021.99,9430.85 12119.98,9528.83 12217.97,9430.85 12119.98,9332.86 "/>
    <polygon class="fil2 str0" points="14275.75,11684.6 14373.74,11782.59 14471.73,11684.6 14373.74,11586.61 "/>
    <polygon class="fil2" points="14275.75,7177.08 14373.74,7079.09 14471.73,7177.08 14373.74,7275.07 "/>
    <polygon class="fil2" points="16725.49,9430.84 16627.5,9528.83 16529.51,9430.84 16627.5,9332.85 "/>
    <polygon class="fil2" points="12021.99,9430.85 13001.89,8450.95 13099.88,8548.94 12119.98,9528.84 "/>
    <polygon class="fil2" points="13295.86,8156.98 14373.74,7079.09 14471.72,7177.08 13393.85,8254.97 "/>
    <polygon class="fil2" points="16725.49,9430.84 15647.61,8352.96 15549.62,8450.95 16627.5,9528.83 "/>
    <polygon class="fil2" points="15353.64,8058.99 14373.74,7079.09 14275.75,7177.08 15255.65,8156.98 "/>
    <polygon class="fil2" points="14471.72,11684.61 13491.84,10704.71 13393.85,10802.7 14373.74,11782.59 "/>
    <polygon class="fil2" points="13197.87,10410.74 12119.98,9332.86 12021.99,9430.85 13099.88,10508.73 "/>
    <polygon class="fil2" points="14275.75,11684.61 15353.64,10606.72 15451.63,10704.71 14373.74,11782.59 "/>
    <polygon class="fil2" points="15647.61,10312.75 16627.5,9332.85 16725.49,9430.84 15745.6,10410.74 "/>
   </g>
  </g>
 </g>
</svg>
