<?xml version="1.0" encoding="UTF-8"?>
<!DOCTYPE svg PUBLIC "-//W3C//DTD SVG 1.1//EN" "http://www.w3.org/Graphics/SVG/1.1/DTD/svg11.dtd">
<!-- Creator: CorelDRAW -->
<svg xmlns="http://www.w3.org/2000/svg" xml:space="preserve" width="297mm" height="210mm" version="1.1" style="shape-rendering:geometricPrecision; text-rendering:geometricPrecision; image-rendering:optimizeQuality; fill-rule:evenodd; clip-rule:evenodd"
viewBox="0 0 29700 21000"
 xmlns:xlink="http://www.w3.org/1999/xlink"
 xmlns:xodm="http://www.corel.com/coreldraw/odm/2003">
 <defs>
  <style type="text/css">
   <![CDATA[
    .fil0 {fill:#27698D;fill-rule:nonzero}
    .fil1 {fill:#D8AE5F;fill-rule:nonzero}
   ]]>
  </style>
 </defs>
 <g id="Слой_x0020_1">
  <metadata id="CorelCorpID_0Corel-Layer"/>
  <g id="_105553156679904">
   <g>
    <path class="fil0" d="M18888.33 8398.57l-175.86 -444.45 -876.11 0 -166.27 444.45 -594.73 0 949.66 -2263.81 530.78 0 940.05 2263.81 -607.52 0zm-607.52 -1659.49l-287.77 776.99 569.15 0 -281.38 -776.99z"/>
    <polygon class="fil0" points="15825.14,8398.57 14984.21,7356.19 14977.81,7356.19 14977.81,8398.57 14440.64,8398.57 14440.64,6134.76 14977.81,6134.76 14977.81,7055.63 14987.41,7055.63 15796.37,6134.76 16480.63,6134.76 15505.4,7177.14 16538.18,8398.57 "/>
    <polygon class="fil0" points="13190.42,8398.57 12349.48,7356.19 12343.09,7356.19 12343.09,8398.57 11805.91,8398.57 11805.91,6134.76 12343.09,6134.76 12343.09,7055.63 12352.68,7055.63 13161.64,6134.76 13845.9,6134.76 12870.67,7177.14 13903.46,8398.57 "/>
    <path class="fil0" d="M10661.21 8398.57l-175.86 -444.45 -876.11 0 -166.27 444.45 -594.73 0 949.65 -2263.81 530.79 0 940.05 2263.81 -607.52 0zm-607.52 -1659.49l-287.77 776.99 569.15 0 -281.38 -776.99z"/>
    <path class="fil0" d="M8311.06 7739.89c0,123.64 -24.51,227.56 -73.54,311.76 -49.02,84.2 -114.04,151.88 -195.04,203.04 -81,51.16 -173.2,87.93 -276.59,110.31 -103.38,22.38 -209.43,33.57 -318.14,33.57l-901.69 0 0 -2263.81 901.69 0c87.39,0 176.92,9.06 268.58,27.18 91.66,18.12 174.8,49.02 249.41,92.72 74.61,43.7 135.36,102.85 182.25,177.46 46.9,74.61 70.35,169.47 70.35,284.58 0,125.76 -34.11,229.68 -102.32,311.75 -68.21,82.07 -157.74,141.23 -268.59,177.46l0 6.4c63.95,10.66 124.17,30.37 180.66,59.15 56.49,28.78 105.52,65.55 147.08,110.31 41.57,44.77 74.61,96.99 99.13,156.68 24.51,59.69 36.76,126.84 36.76,201.44zm-546.76 -51.16c0,-93.79 -35.18,-158.81 -105.52,-195.05 -70.34,-36.23 -164.14,-54.35 -281.38,-54.35l-303.76 0 0 517.99 306.96 0c42.63,0 86.86,-3.73 132.69,-11.19 45.83,-7.46 87.4,-20.78 124.71,-39.97 37.3,-19.18 67.67,-46.36 91.12,-81.54 23.45,-35.17 35.18,-80.46 35.18,-135.89zm-73.55 -898.49c0,-76.74 -29.31,-132.69 -87.93,-167.87 -58.62,-35.17 -145.48,-52.76 -260.59,-52.76l-268.59 0 0 466.84 294.17 0c102.32,0 181.72,-20.79 238.21,-62.36 56.49,-41.56 84.73,-102.85 84.73,-183.85z"/>
   </g>
   <path class="fil1" d="M7024.93 9504.54l0 725.41 -220.72 0 0 -725.41 -258.15 0 0 -188.45 737.02 0 0 188.45 -258.15 0zm2470.95 725.41l-197.49 -362.71 -74.86 0 0 362.71 -216.85 0 0 -913.86 348.51 0c43.88,0 86.69,4.52 128.42,13.55 41.74,9.04 79.17,24.31 112.3,45.83 33.13,21.51 59.6,49.91 79.38,85.19 19.79,35.28 29.69,79.16 29.69,131.66 0,61.95 -16.78,114.01 -50.34,156.18 -33.56,42.16 -80.03,72.28 -139.4,90.35l238.79 391.1 -258.15 0zm-9.03 -633.76c0,-21.52 -4.52,-38.94 -13.56,-52.28 -9.03,-13.34 -20.65,-23.67 -34.85,-30.98 -14.2,-7.31 -30.12,-12.26 -47.76,-14.84 -17.64,-2.58 -34.63,-3.87 -50.99,-3.87l-117.45 0 0 212.98 104.55 0c18.07,0 36.57,-1.51 55.5,-4.52 18.93,-3.02 36.15,-8.39 51.63,-16.14 15.49,-7.75 28.19,-18.93 38.08,-33.56 9.9,-14.63 14.85,-33.56 14.85,-56.79zm2618.09 633.76l-70.99 -179.42 -353.67 0 -67.12 179.42 -240.08 0 383.35 -913.86 214.27 0 379.49 913.86 -245.25 0zm-245.24 -669.91l-116.18 313.66 229.76 0 -113.58 -313.66zm2603.9 669.91l-220.72 0 -345.93 -913.86 247.83 0 211.68 647.96 5.17 0 210.39 -647.96 243.95 0 -352.37 913.86zm2050.16 0l0 -913.86 614.4 0 0 187.17 -401.43 0 0 171.66 379.49 0 0 176.84 -379.49 0 0 189.74 424.67 0 0 188.45 -637.64 0zm2406.41 0l0 -913.86 222.01 0 0 721.54 353.67 0 0 192.32 -575.68 0z"/>
  </g>
 </g>
</svg>
