<svg width="89" height="89" viewBox="0 0 89 89" fill="none" xmlns="http://www.w3.org/2000/svg">
<path fill-rule="evenodd" clip-rule="evenodd" d="M42.2499 75.6662L44.0843 73.8324L45.9187 75.6662L44.0843 77.5001L42.2499 75.6662ZM36.7468 73.8324L40.4154 70.1648L42.2499 71.9986L38.581 75.6662L44.0843 81.1677L66.0974 59.1619L56.9253 49.9929L55.0908 51.8267L62.4285 59.1619L58.7597 62.8296L55.0908 59.1619L47.7531 66.4972L45.9187 64.6634L53.2564 57.3281L51.422 55.4943L42.2499 64.6634L47.7531 70.1648L55.0908 62.8296L56.9253 64.6634L47.7531 73.8324L40.4154 66.4972L34.9124 71.9986L36.7468 73.8324Z" fill="#27698D"/>
<path fill-rule="evenodd" clip-rule="evenodd" d="M33.0778 70.1648L34.9122 68.331L33.0778 66.4972L31.2434 68.331L33.0778 70.1648Z" fill="#27698D"/>
<path fill-rule="evenodd" clip-rule="evenodd" d="M36.7467 66.4972L38.581 64.6634L36.7465 62.8296L34.9121 64.6634L36.7467 66.4972Z" fill="#27698D"/>
<path fill-rule="evenodd" clip-rule="evenodd" d="M66.0974 66.4972L67.9318 64.6634L66.0974 62.8296L64.2629 64.6634L66.0974 66.4972Z" fill="#27698D"/>
<path fill-rule="evenodd" clip-rule="evenodd" d="M45.9186 13.3168L44.0842 15.1506L42.2498 13.3168L44.0842 11.483L45.9186 13.3168ZM51.4219 15.1506L47.7531 18.8182L45.9186 16.9844L49.5875 13.3168L44.0842 7.81535L22.0713 29.8211L31.2434 38.9902L33.0778 37.1564L25.7401 29.8211L29.409 26.1535L33.0778 29.8211L40.4154 22.4859L42.2498 24.3197L34.9121 31.6549L36.7465 33.4887L45.9186 24.3197L40.4154 18.8182L33.0778 26.1535L31.2434 24.3197L40.4154 15.1506L47.7531 22.4859L53.2563 16.9844L51.4219 15.1506Z" fill="#27698D"/>
<path fill-rule="evenodd" clip-rule="evenodd" d="M55.0908 18.8182L53.2563 20.652L55.0908 22.4859L56.9252 20.652L55.0908 18.8182Z" fill="#27698D"/>
<path fill-rule="evenodd" clip-rule="evenodd" d="M51.4218 22.4859L49.5874 24.3197L51.4218 26.1535L53.2563 24.3197L51.4218 22.4859Z" fill="#27698D"/>
<path fill-rule="evenodd" clip-rule="evenodd" d="M22.0712 22.4859L20.2368 24.3197L22.0712 26.1535L23.9057 24.3197L22.0712 22.4859Z" fill="#27698D"/>
<path fill-rule="evenodd" clip-rule="evenodd" d="M12.899 42.6576L14.7335 44.4914L12.899 46.3252L11.0646 44.4914L12.899 42.6576ZM14.7335 37.1564L18.4023 40.824L16.5679 42.6576L12.899 38.9902L7.39575 44.4914L29.4089 66.4972L38.5808 57.3281L36.7466 55.4943L29.4089 62.8296L25.74 59.1619L29.4089 55.4943L22.0712 48.1591L23.9056 46.3252L31.2433 53.6605L33.0777 51.8267L23.9056 42.6576L18.4023 48.1591L25.74 55.4943L23.9056 57.3281L14.7335 48.1591L22.0712 40.824L16.5679 35.3226L14.7335 37.1564Z" fill="#27698D"/>
<path fill-rule="evenodd" clip-rule="evenodd" d="M18.4023 33.4887L20.2368 35.3226L22.0712 33.4887L20.2368 31.6549L18.4023 33.4887Z" fill="#27698D"/>
<path fill-rule="evenodd" clip-rule="evenodd" d="M22.071 37.1564L23.9055 38.9902L25.7399 37.1564L23.9055 35.3226L22.071 37.1564Z" fill="#27698D"/>
<path fill-rule="evenodd" clip-rule="evenodd" d="M22.071 66.4972L23.9055 68.331L25.7399 66.4972L23.9055 64.6634L22.071 66.4972Z" fill="#27698D"/>
<path fill-rule="evenodd" clip-rule="evenodd" d="M75.2694 46.3253L73.4349 44.4914L75.2694 42.6576L77.1038 44.4914L75.2694 46.3253ZM73.4349 51.8267L69.7661 48.1591L71.6005 46.3253L75.2694 49.9929L80.7725 44.4914L58.7595 22.4859L49.5874 31.6549L51.4218 33.4888L58.7595 26.1535L62.4284 29.8211L58.7595 33.4888L66.0972 40.8238L64.2628 42.6576L56.9251 35.3226L55.0907 37.1564L64.2628 46.3253L69.7661 40.8238L62.4284 33.4888L64.2628 31.6549L73.4349 40.8238L66.0972 48.1591L71.6005 53.6605L73.4349 51.8267Z" fill="#27698D"/>
<path fill-rule="evenodd" clip-rule="evenodd" d="M69.766 55.4943L67.9316 53.6605L66.0972 55.4943L67.9316 57.3281L69.766 55.4943Z" fill="#27698D"/>
<path fill-rule="evenodd" clip-rule="evenodd" d="M66.0973 51.8267L64.2629 49.9929L62.4285 51.8267L64.2629 53.6605L66.0973 51.8267Z" fill="#27698D"/>
<path fill-rule="evenodd" clip-rule="evenodd" d="M66.0973 22.4859L64.2629 20.6521L62.4285 22.4859L64.2629 24.3197L66.0973 22.4859Z" fill="#27698D"/>
<path fill-rule="evenodd" clip-rule="evenodd" d="M44.0842 29.8211L29.4089 44.4914L44.0843 59.1619L58.7596 44.4916L44.0842 29.8211Z" fill="#D8AE5F"/>
<path fill-rule="evenodd" clip-rule="evenodd" d="M0.0581055 44.4916L1.89254 46.3252L3.72695 44.4916L1.89254 42.6578L0.0581055 44.4916Z" fill="#27698D"/>
<path fill-rule="evenodd" clip-rule="evenodd" d="M42.2498 86.6689L44.0842 88.5028L45.9186 86.6689L44.0842 84.8351L42.2498 86.6689Z" fill="#27698D" stroke="#D8AE5F" stroke-width="0.288" stroke-miterlimit="22.9256"/>
<path fill-rule="evenodd" clip-rule="evenodd" d="M42.2498 2.31392L44.0842 0.480103L45.9186 2.31392L44.0842 4.14773L42.2498 2.31392Z" fill="#27698D"/>
<path fill-rule="evenodd" clip-rule="evenodd" d="M88.1103 44.4914L86.2758 46.3252L84.4414 44.4914L86.2758 42.6576L88.1103 44.4914Z" fill="#27698D"/>
<path fill-rule="evenodd" clip-rule="evenodd" d="M0.0581055 44.4916L18.4024 26.1535L20.2368 27.9873L1.89254 46.3254L0.0581055 44.4916Z" fill="#27698D"/>
<path fill-rule="evenodd" clip-rule="evenodd" d="M23.9058 20.652L44.0843 0.480103L45.9185 2.31392L25.7402 22.4859L23.9058 20.652Z" fill="#27698D"/>
<path fill-rule="evenodd" clip-rule="evenodd" d="M88.1101 44.4914L67.9316 24.3197L66.0972 26.1535L86.2757 46.3252L88.1101 44.4914Z" fill="#27698D"/>
<path fill-rule="evenodd" clip-rule="evenodd" d="M62.4284 18.8182L44.0842 0.480103L42.2498 2.31392L60.594 20.652L62.4284 18.8182Z" fill="#27698D"/>
<path fill-rule="evenodd" clip-rule="evenodd" d="M45.9183 86.6691L27.5744 68.331L25.74 70.1648L44.0841 88.5027L45.9183 86.6691Z" fill="#27698D"/>
<path fill-rule="evenodd" clip-rule="evenodd" d="M22.0712 62.8296L1.89254 42.6578L0.0581055 44.4916L20.2368 64.6634L22.0712 62.8296Z" fill="#27698D"/>
<path fill-rule="evenodd" clip-rule="evenodd" d="M42.2498 86.6691L62.4284 66.4972L64.2629 68.331L44.0842 88.5027L42.2498 86.6691Z" fill="#27698D"/>
<path fill-rule="evenodd" clip-rule="evenodd" d="M67.9316 60.9957L86.2757 42.6576L88.1101 44.4914L69.7661 62.8295L67.9316 60.9957Z" fill="#27698D"/>
</svg>
